<?xml version="1.0" encoding="UTF-8" standalone="no"?>
<!-- Created with Inkscape (http://www.inkscape.org/) -->

<svg
   width="210mm"
   height="297mm"
   viewBox="0 0 210 297"
   version="1.1"
   id="svg5"
   inkscape:export-filename="logo.svg"
   inkscape:export-xdpi="96"
   inkscape:export-ydpi="96"
   sodipodi:docname="logo.svg"
   inkscape:version="1.2 (dc2aedaf03, 2022-05-15)"
   xmlns:inkscape="http://www.inkscape.org/namespaces/inkscape"
   xmlns:sodipodi="http://sodipodi.sourceforge.net/DTD/sodipodi-0.dtd"
   xmlns="http://www.w3.org/2000/svg"
   xmlns:svg="http://www.w3.org/2000/svg">
  <sodipodi:namedview
     id="namedview7"
     pagecolor="#ffffff"
     bordercolor="#000000"
     borderopacity="0.25"
     inkscape:showpageshadow="2"
     inkscape:pageopacity="0.0"
     inkscape:pagecheckerboard="0"
     inkscape:deskcolor="#d1d1d1"
     inkscape:document-units="mm"
     showgrid="false"
     inkscape:zoom="0.20693141"
     inkscape:cx="964.08757"
     inkscape:cy="616.14619"
     inkscape:window-width="1600"
     inkscape:window-height="838"
     inkscape:window-x="-8"
     inkscape:window-y="-8"
     inkscape:window-maximized="1"
     inkscape:current-layer="layer1" />
  <defs
     id="defs2" />
  <g
     inkscape:label="Layer 1"
     inkscape:groupmode="layer"
     id="layer1">
    <g
       aria-label="War on Drugs"
       id="text741"
       style="font-size:57.7219px;font-family:hiru;-inkscape-font-specification:hiru;fill:#fffffa;stroke-width:4.81015">
      <path
         d="m -120.40708,-30.047826 q -0.28861,0.404053 -0.46178,0.865828 -0.17316,0.461776 0.11545,1.096716 0.0577,-0.519497 0.11544,-0.981272 0.11545,-0.519497 0.23089,-0.981272 0.28861,-0.28861 0.5195,-0.519497 0.28861,-0.28861 0.63494,-0.577219 0.0577,0.288609 0.0577,0.461775 0.0577,0.173166 0.17317,0.461775 0.28861,0 0.28861,-0.115444 0.2886,-0.577219 0.51949,-1.154438 0.28861,-0.577219 0.5195,-1.154438 0.40405,-1.327603 1.15444,-2.482041 0.23088,-0.28861 0.28861,-0.634941 0.11544,-0.404054 0.23088,-0.750385 0.28861,-0.865829 0.5195,-1.847101 0.23089,-0.981272 0.5195,-1.904823 -0.23089,-0.230887 -0.46178,-0.404053 -0.17316,-0.230888 -0.23088,-0.519497 -0.0577,-0.28861 0.0577,-0.577219 0.17316,-0.346331 -0.11545,-0.808107 -0.0577,0.634941 -0.46177,1.038995 -0.40405,0.346331 -0.40405,0.808106 -0.0577,0.750385 -0.5195,1.269882 -0.40406,0.519497 -0.63494,1.154438 -0.28861,0.808107 -0.80811,1.154438 -0.46177,0.288609 -1.09672,0.577219 -0.17316,-0.28861 -0.0577,-0.577219 0.11545,-0.28861 0.40406,-0.519497 0.11544,0 0.28861,0.05772 0.17316,0 0.34633,0 0.11544,-0.577219 0.34633,-1.21216 0.28861,-0.692663 0.40405,-0.981272 0.46178,-0.923551 1.039,-2.366598 -0.11545,-0.115444 -0.23089,-0.230888 -0.11545,-0.173166 -0.23089,-0.28861 0.63494,-1.673935 1.73166,-3.34787 0.40405,-0.634941 0.69266,-1.327603 0.34633,-0.692663 0.46178,-1.50077 0.11544,-0.634941 0.75038,-0.808107 0.46178,-0.115443 0.75039,-0.288609 0.2886,-0.173166 0.75038,-0.346331 0.17317,0.346331 0.23089,0.808106 0.11544,0.461775 0.34633,0.808107 0.23089,-0.346332 0.57722,-0.519497 0.11544,0.115443 0.11544,0.346331 0.0577,0.173166 0.17317,0.404053 h 0.23088 q 0.46178,-0.634941 1.09672,-0.634941 0.34633,0 0.69266,0.173166 0.40406,0.115444 0.69267,0.230888 1.21216,0.288609 1.50077,1.616213 0.46177,1.847101 0.86582,3.867367 0.40406,1.962545 0.57722,3.92509 0.17317,2.482041 0.63494,4.964083 0.5195,2.482042 1.38533,4.84864 0.0577,0.288609 0.28861,0.346331 0.17317,-1.154438 0.28861,-2.366598 0.17316,-1.21216 0.28861,-2.42432 0.11544,-0.808106 0.11544,-1.731657 0.0577,-0.981272 0.69267,-1.731657 0.23088,-0.288609 0.17316,-0.750384 -0.0577,-0.519497 0.40405,-0.923551 -0.40405,-0.634941 0,-0.865828 0.46178,-0.230888 0.63495,-0.461775 -0.11545,-0.346332 -0.23089,-0.634941 -0.0577,-0.346332 0,-0.577219 0.17316,-0.865829 0.34633,-1.789379 0.230887,-0.923551 0.63494,-1.847101 0.115444,-0.28861 0.519497,-0.577219 0.461775,-0.346332 0.808107,-0.634941 -0.519497,-0.692663 -0.404054,-1.269882 0.173166,-0.577219 0.692663,-1.096716 0.346332,-0.346331 0.577219,-0.808107 0.28861,-0.461775 0.05772,-1.038994 -0.05772,-0.230887 0.05772,-0.519497 0.461775,-0.92355 0.92355,-1.731657 0.519498,-0.808107 0.923551,-1.673935 0.634941,-1.269882 1.385325,-2.482042 0.750385,-1.21216 1.558492,-2.366598 0.173165,-0.288609 0.346331,-0.634941 0.230888,-0.404053 0.346332,-0.692662 0.230887,-0.404054 0.404053,-0.750385 0.230888,-0.404054 0.519497,-0.692663 0.173166,-0.173166 0.461775,-0.28861 0.28861,-0.115443 0.28861,-0.288609 0.05772,-0.28861 0.230887,-0.404053 0.173166,-0.115444 0.346332,-0.346332 0.288609,-0.288609 0.461775,-0.634941 0.230888,-0.346331 0.808107,-0.346331 0.115443,0.230888 0.346331,0.461775 0.230888,0.230888 0.519497,0.519497 -0.05772,0.28861 -0.115444,0.577219 -0.05772,0.28861 -0.173165,0.634941 0.288609,0 0.519497,-0.05772 0.230887,-0.115444 0.519497,-0.173165 0.173165,0.519497 0.577219,0.865828 0.461775,0.28861 0.519497,0.981272 0,0.230888 0.288609,0.404054 0.28861,0.115444 0.519498,0.346331 0.692662,0.577219 0.808106,1.385326 0.115444,0.750384 0,1.558491 -0.05772,1.096716 -0.577219,2.42432 -0.461775,1.269882 -1.096716,2.655207 -0.634941,1.327604 -1.385326,2.597486 -0.692662,1.269882 -1.269881,2.251154 -0.461776,0.461775 -0.808107,0.92355 -0.28861,0.404054 -0.346331,1.154438 v -0.230887 q -0.750385,0.692663 -0.750385,1.789379 0.173166,-0.173166 0.230887,-0.28861 l 0.519498,-0.461775 q 0.05772,-0.115444 0.115443,-0.115444 0.05772,-0.05772 0.115444,-0.173165 0.173166,0.808106 -0.230887,1.385325 -0.404054,0.519497 -0.577219,1.154438 -0.173166,0.692663 -0.519498,1.443048 -0.288609,0.750384 -0.577219,1.443047 -0.577219,1.443048 -1.096716,2.828373 -0.519497,1.385326 -0.981272,2.886095 -0.519497,1.731657 -0.981272,3.521036 -0.461776,1.731657 -0.981273,3.521036 -0.634941,2.020267 -0.865828,4.098255 -0.230888,2.077989 -0.577219,4.155977 -0.115444,0.634941 -0.115444,1.327604 0.05772,0.634941 0.05772,1.443047 -0.115444,0.115444 -0.346331,0.28861 -0.173166,0.230888 -0.461776,0.461775 -1.096716,-0.288609 -1.443047,-1.038994 -0.346332,-0.750385 -0.461775,-1.731657 0,-0.923551 -0.461776,-1.443048 -0.288609,0.28861 -0.519492,0.577219 -0.17317,0.230888 -0.28861,0.519498 -0.23089,0 -0.23089,-0.173166 -0.5195,-0.634941 -0.98127,-0.923551 -0.40406,-0.346331 -0.92355,-0.519497 -0.5195,-0.230887 -1.15444,-0.346331 -0.63494,-0.173166 -1.44305,-0.519497 -0.40405,-0.173166 -0.69266,-0.230888 -0.28861,-0.115444 -0.57722,-0.404053 -1.26988,-0.981272 -2.48204,-2.077989 -1.15444,-1.154438 -1.96255,-2.597485 l -1.21216,-2.251154 q -0.28861,-0.577219 -0.57722,-1.096716 -0.28861,-0.577219 -0.57722,-1.154438 -0.23088,-0.461776 -0.23088,-0.923551 0.0577,-0.461775 -0.0577,-0.92355 0,-0.05772 -0.0577,-0.05772 0,0 0,-0.05772 l -0.11544,-0.173166 q 0,-0.05772 -0.0577,-0.05772 0,0 0,-0.05772 0.0577,-0.115443 0.0577,-0.346331 0,-0.230888 0.0577,-0.519497 -0.75038,0.288609 -0.86583,0.808107 -0.0577,0.519497 -0.34633,1.038994 0.28861,-0.230888 0.5195,-0.461775 0.28861,-0.28861 0.57722,-0.519498 -0.11545,0.346332 -0.28861,0.750385 -0.17317,0.346332 -0.28861,0.692663 l -1.21216,2.943817 q -0.11545,0.404053 -0.28861,0.750385 -0.17317,0.346331 -0.28861,0.750384 -0.23089,0.577219 -0.5195,1.154438 -0.28861,0.577219 -0.5195,1.327604 -0.0577,0.173166 -0.0577,0.461775 0,0.28861 0,0.461776 -0.11544,0.519497 -0.28861,0.692662 -0.17316,0.173166 -0.8081,0.28861 0.46177,0.346331 0.34633,0.750385 -0.11545,0.346331 -0.28861,0.692662 -0.34633,0.808107 -0.63494,1.558492 -0.23089,0.692662 -0.57722,1.443047 -0.40405,0.808107 -1.039,0.808107 -0.40405,0 -0.92355,-0.173166 -0.0577,-0.115444 -0.0577,-0.115444 -0.0577,0 -0.0577,0 -0.34633,0.404054 -0.75038,0.404054 -0.40406,0 -0.80811,-0.173166 -0.34633,-0.230888 -0.63494,-0.346331 -0.98127,-0.28861 -2.02027,-0.692663 -0.98127,-0.461776 -1.78938,-1.154438 -0.11544,-0.230888 -0.17316,-0.28861 -0.0577,-0.115444 -0.17317,-0.230887 -0.63494,-0.923551 -1.44305,-1.385326 -0.8081,-0.519497 -1.61621,-1.21216 -0.69266,-0.577219 -1.26988,-1.385326 -0.57722,-0.865828 -1.09672,-1.789379 -0.46177,-0.981272 -0.86583,-1.904822 -0.34633,-0.981273 -0.63494,-1.847101 -0.75038,-2.193432 -0.98127,-4.386865 -0.23089,-2.251154 -0.23089,-4.386864 -0.0577,-2.020267 0,-3.982811 0.11545,-1.962545 0.23089,-3.867368 0.28861,-2.886095 0.86583,-5.656746 0.63494,-2.828373 1.50077,-5.599024 0.28861,-0.05772 0.57722,-0.115444 0.34633,-0.05772 0.63494,0 0.28861,0.115444 0.69266,0.230888 0.40405,0.05772 0.28861,0.63494 0.46178,0.05772 0.63494,0.404054 0.17317,0.288609 0.28861,0.577219 1.38533,-0.115444 2.13571,0.519497 0.80811,0.634941 1.32761,1.962545 0.51949,1.327603 0.57721,2.770651 0.0577,1.443047 -0.0577,2.943817 -0.11544,1.789379 -0.17316,3.694201 0,1.847101 -0.11545,3.694202 0,0.750385 -0.11544,1.500769 -0.11544,0.750385 -0.0577,1.558492 0.0577,1.731657 0.17316,3.463314 0.17317,1.673935 0.28861,3.34787 0.0577,0.692663 0.17317,1.847101 0.11544,1.154438 0.34633,2.366598 0.28861,1.21216 0.63494,2.308876 0.40405,1.096716 0.92355,1.616213 0,-0.346331 0.0577,-0.519497 v -1.038994 q 0.0577,-0.173166 0.0577,-0.519497 0.11545,-0.519497 0.17317,-1.038995 0.11544,-0.519497 0.63494,-0.92355 -0.17316,-0.288609 -0.17316,-0.519497 0.0577,-0.230888 0.17316,-0.461775 0.11544,-0.28861 0.23089,-0.519497 0.11544,-0.230888 0.11544,-0.519497 0.0577,-0.404054 0.28861,-0.865829 0.23089,-0.519497 0.40406,-1.038994 0.17316,-0.519497 0.2886,-0.981273 0.17317,-0.519497 0.28861,-1.038994 0.17317,-0.577219 0.34634,-1.096716 0.23088,-0.519497 0.34633,-0.981272 0.28861,0.115444 0.40405,0.173166 0.11544,0 0.28861,0.05772 -0.0577,-0.230887 -0.11544,-0.404053 -0.0577,-0.230887 -0.17317,-0.461775 0.69266,0.05772 1.21216,0.461775 -0.11544,0.404053 -0.28861,0.808107 -0.11544,0.404053 -0.23089,0.750384 -0.28861,-0.115443 -0.51949,-0.173165 -0.23089,-0.05772 -0.5195,-0.173166 0,0.115444 -0.0577,0.173166 v 0.288609 q -0.0577,0.05772 -0.0577,0.173166 0.92355,-0.05772 0.92355,0.692663 0,0.346331 -0.0577,0.634941 -0.0577,0.230887 -0.11544,0.519497 z m 5.31041,-13.218316 q -0.0577,-0.05772 -0.23088,-0.05772 -0.17317,0.230887 -0.17317,0.461775 l 0.17317,0.115444 q 0.0577,-0.115444 0.0577,-0.115444 l 0.11544,-0.28861 q 0,-0.05772 0,-0.05772 0.0577,0 0.0577,-0.05772 z m -3.63647,16.912517 h 0.11544 l 0.0577,0.05772 q 0.11544,-0.173165 0.11544,-0.404053 0.0577,-0.288609 0.11545,-0.519497 l -0.0577,-0.05772 q -0.11545,0.115444 -0.23089,0.461775 -0.0577,0.28861 -0.11544,0.461775 z m -2.71293,2.886096 q 0.11544,0 0.17316,0.05772 0.11545,0 0.23089,0 0.23089,-0.288609 0.34633,-0.692662 0.11544,-0.404054 0.28861,-0.808107 0.28861,-0.92355 0.28861,-1.096716 0.0577,-0.173166 -0.23089,-0.404053 -0.28861,0.750384 -0.57722,1.500769 -0.23088,0.692663 -0.51949,1.443048 z m -1.50077,1.327603 q 0.86582,-1.443047 1.09671,-2.077988 0.23089,-0.634941 0.0577,-1.327604 -0.28861,0.981272 -0.57721,1.789379 -0.28861,0.808107 -0.57722,1.616213 z m 3.92509,-2.308876 q -0.17317,0 -0.23089,-0.05772 -0.0577,0.230888 -0.17317,0.404054 -0.0577,0.173165 -0.0577,0.461775 l 0.11544,0.05772 q 0.11545,-0.173166 0.17317,-0.404054 0.0577,-0.230887 0.17317,-0.461775 z m -2.07799,1.616213 q -0.63494,0.808107 -0.98128,2.020267 -0.2886,1.21216 0,2.077988 0.23089,-1.154438 0.46178,-2.13571 0.23089,-0.981272 0.5195,-1.962545 z"
         style="font-family:'Hiruzen Exist';-inkscape-font-specification:'Hiruzen Exist'"
         id="path2217" />
      <path
         d="m -57.0862,-20.465991 q -0.461775,0.230888 -0.808107,0.404054 -0.346331,0.173165 -0.63494,0.288609 0.115443,0.28861 0.230887,0.461775 0.173166,0.173166 0.346332,0.461776 -0.981273,-0.115444 -1.847101,-0.115444 -0.808107,0 -1.673935,-0.05772 0.577219,0.173166 1.154438,0.288609 0.577219,0.05772 1.096716,0.28861 0.519497,0.173166 0.981272,0.519497 0.461775,0.346331 0.808107,1.038994 -0.28861,0.115444 -0.577219,0.230888 -0.230888,0.115444 -0.461776,0.115444 h -0.63494 l -1.269882,-0.115444 h -0.634941 q -0.28861,-0.05772 -0.577219,0.173166 -0.230888,0.288609 -0.28861,0.63494 0,0.115444 0,0.230888 0.05772,0.173166 0.05772,0.346331 0.05772,0.173166 0.05772,0.404054 -0.634941,0.577219 -1.327604,0.981272 -0.634941,0.461775 -1.616213,0.692663 -0.115444,0 -0.288609,-0.115444 -0.115444,-0.05772 -0.230888,-0.230888 -0.288609,-0.346331 -0.577219,-0.63494 -0.288609,-0.230888 -0.750385,-0.346332 -0.115444,0 -0.288609,-0.230887 -0.173166,-0.173166 -0.28861,-0.28861 -0.519497,-0.577219 -0.92355,-0.577219 -0.346332,0 -0.808107,0.346331 -0.577219,0.346332 -1.385325,0.28861 -0.577219,-0.115444 -1.154438,0 -0.519497,0.173166 -0.865829,0.92355 -0.115444,-0.230887 -0.230888,-0.404053 -0.05772,-0.115444 -0.230887,-0.173166 -0.115444,-0.05772 -0.577219,0.05772 -1.50077,0.519497 -3.001539,0.981273 -1.500769,0.519497 -3.059261,0.981272 -0.288609,0.173166 -0.634941,0.230887 -0.346331,0.05772 -0.692662,0.173166 -0.115444,0 -0.28861,0 -0.115444,0.05772 -0.173166,0 -0.346331,-0.461775 -0.865828,-0.346331 -0.461775,0.115444 -0.923551,-0.05772 v -0.05772 l 0.05772,-0.115444 q 0,-0.288609 0,-0.461775 0.05772,-0.173166 0.115444,-0.346331 h -0.808106 q 0.05772,-0.404054 0.288609,-0.634941 0.230888,-0.173166 0.519497,-0.28861 0.346332,-0.05772 0.692663,-0.115444 0.404053,-0.05772 0.692663,-0.288609 h -3.174705 q -0.115444,-0.05772 -0.346331,-0.05772 -0.173166,0 -0.230888,-0.115444 -0.173166,-0.173166 -0.05772,-0.346331 0.115444,-0.173166 0.28861,-0.28861 0.346331,-0.288609 0.692663,-0.461775 0.404053,-0.173166 0.92355,-0.05772 0.577219,0.115444 1.096716,0 0.577219,-0.05772 1.038994,-0.461775 -0.634941,0 -1.327603,0.115444 -0.692663,0.115444 -1.327604,0.115444 -0.865829,0 -1.50077,-0.28861 0.28861,-0.115444 0.577219,-0.230888 0.346332,-0.173165 0.750385,-0.346331 -0.461775,-0.115444 -0.865828,-0.230888 -0.404054,-0.115443 -0.865829,-0.230887 0.115444,-0.28861 0.173166,-0.519497 0.05772,-0.230888 0.230887,-0.346332 0.750385,-0.692663 0.28861,-1.789379 -0.346331,-0.92355 -0.346331,-1.8471 0.05772,-0.981273 0.230887,-1.962545 0.115444,-1.154438 0.404053,-2.308876 0.28861,-1.154438 0.57722,-2.308876 0.115443,-0.28861 0.05772,-0.519497 0,-0.230888 0.05772,-0.461775 0.115444,-0.750385 0.28861,-1.443048 0.173166,-0.692663 0.346331,-1.327604 l 0.519497,-1.731657 q 0.461776,-1.616213 1.038995,-3.232426 0.577219,-1.616213 1.269881,-3.116983 0.404054,-0.92355 0.981273,-1.789379 0.577219,-0.865828 1.038994,-1.789379 0.404053,-0.634941 0.750385,-1.21216 0.404053,-0.577219 0.808106,-1.21216 -0.115444,-0.05772 -0.173165,-0.115443 0,-0.05772 -0.05772,-0.115444 -0.115444,0.115444 -0.346332,0.173166 -0.173165,0.05772 -0.288609,0.115443 l -0.05772,-0.05772 q 0.865828,-1.673935 1.789379,-3.290148 0.92355,-1.673935 1.962544,-3.290148 0.519497,-0.750385 1.096716,-1.443048 0.577219,-0.750385 1.443048,-1.21216 0.115444,-0.115444 0.230888,-0.173165 0.115443,-0.05772 0.173165,-0.173166 0.230888,-0.28861 0.519497,-0.461775 0.28861,-0.173166 0.692663,-0.05772 0.404054,0.173165 0.808107,0.346331 0.461775,0.115444 0.750385,0.404053 0.461775,0.461776 0.865828,1.038995 0.404053,0.519497 1.21216,0.692663 0.173166,0 0.173166,0.346331 0.115444,0.288609 0.230887,0.404053 0.115444,0.115444 0.519497,0.173166 0.230888,0 0.461776,0.230888 0.230887,0.173165 0.461775,0.404053 0.692663,0.634941 1.038994,1.443047 0.346331,0.750385 0.519497,1.558492 0.28861,1.096716 0.461775,2.193432 0.173166,1.038994 0.346332,2.13571 l 0.230887,1.731657 q 0.05772,0.230888 0.05772,0.461775 0,0.173166 0.05772,0.404054 v 0.461775 l 0.05772,0.865829 v 0.461775 q 0.05772,1.847101 0.115444,3.636479 0.05772,1.731658 0.115444,3.521036 v 2.366598 l -0.05772,4.84864 v 2.366598 q -0.05772,0.808107 0.115444,1.038994 0.173165,0.173166 0.981272,0.461775 2.020266,0.634941 3.405592,2.366598 z m -13.391481,-32.035655 q -0.05772,-0.05772 -0.115444,-0.05772 0,0 -0.05772,-0.115443 -0.115443,0.173165 -0.230887,0.346331 -0.115444,0.115444 -0.230888,0.346331 0.05772,0 0.173166,0.115444 0.346331,-0.461775 0.461775,-0.634941 z m -3.116983,4.271421 q 0.05772,0.05772 0.28861,0.173166 0.288609,-0.577219 0.577219,-1.096716 0.346331,-0.577219 0.634941,-1.096717 -0.05772,-0.115443 -0.115444,-0.115443 0,0 -0.05772,-0.05772 -0.346331,0.577219 -0.692663,1.096716 -0.346331,0.519497 -0.634941,1.096716 z m -2.077988,1.443048 q -0.05772,-0.173166 -0.173166,-0.173166 -0.288609,0.346331 -0.461775,0.981272 h 0.05772 q 0.173166,-0.173166 0.288609,-0.346331 0.173166,-0.230888 0.28861,-0.461775 z m 5.368137,1.789378 q -0.750385,0.115444 -0.923551,0.577219 -0.115443,0.461776 -0.346331,0.808107 -0.519497,0.981272 -1.096716,1.962545 -0.519497,0.92355 -0.865829,2.020266 -0.288609,0.750385 -0.577219,1.443048 -0.230887,0.692663 -0.808106,1.327603 -0.173166,0.173166 -0.28861,0.461776 -0.115444,0.230887 -0.05772,0.461775 0.115444,0.461775 -0.346331,0.92355 -0.115444,0.115444 -0.230888,0.404054 -0.05772,0.230887 -0.173165,0.461775 -0.115444,0.173166 -0.115444,0.346331 0,0.173166 -0.05772,0.28861 -0.28861,0.634941 -0.577219,1.21216 -0.230888,0.519497 -0.519497,1.096716 v 0.230887 q 0.230887,0.577219 0,1.038995 -0.173166,0.404053 -0.404054,0.865828 -0.461775,0.981272 -0.865828,1.962545 -0.346332,0.92355 -0.519497,1.962544 0,0.173166 -0.115444,0.519497 l -0.230888,1.038995 q -0.05772,0.115444 -0.05772,0.288609 0,0.115444 -0.05772,0.230888 -0.115444,0.577219 -0.230888,1.154438 -0.05772,0.577219 -0.230888,1.21216 2.71293,-0.634941 5.252693,-0.923551 2.597486,-0.346331 5.021806,-1.096716 -0.692663,-5.599024 -0.692663,-11.140327 0,-5.541302 0.115444,-11.140327 z m -6.811185,4.386865 q -0.577219,0.461775 -0.692662,0.692663 -0.05772,0.173165 -0.05772,0.865828 0.288609,-0.519497 0.404053,-0.865828 0.173166,-0.346332 0.346331,-0.692663 z m -1.904822,3.463314 q 0.173165,-0.173166 0.404053,-0.346331 0.28861,-0.230888 0.05772,-0.750385 -0.173166,0.346331 -0.28861,0.634941 -0.05772,0.230887 -0.173165,0.461775 z m -1.443048,4.502308 q -0.115444,-0.115444 -0.230887,-0.115444 -0.115444,0.461776 -0.346332,0.981273 -0.173166,0.519497 -0.346331,0.981272 0.115444,0 0.115444,0.05772 0.05772,0 0.115443,0 0.230888,-0.461775 0.346332,-0.92355 0.173165,-0.519498 0.346331,-0.981273 z m 2.71293,13.564647 q 0.173165,0.115444 0.230887,0.173166 0.05772,0.05772 0.115444,0.05772 1.904823,-0.404054 3.809645,-0.750385 1.962545,-0.404053 3.92509,-0.865829 0.115443,0 0.115443,-0.173165 0.05772,-0.173166 0.173166,-0.28861 -2.193432,0.28861 -4.271421,0.750385 -2.020266,0.461775 -4.098254,1.096716 z m 4.329142,0.404053 q 0.808107,0.115444 1.21216,0 0.404053,-0.115444 0.865829,-0.577219 -0.634941,0.173166 -1.154439,0.346332 -0.461775,0.115443 -0.92355,0.230887 z m -0.634941,0.404054 q -0.692663,-0.519498 -0.981272,-0.519498 -0.173166,0 -0.346332,0.115444 -0.173165,0.115444 -0.461775,0.404054 0.404054,0.230887 0.808107,0.230887 0.230887,0 0.461775,-0.05772 0.230888,-0.05772 0.519497,-0.173165 z"
         style="font-family:'Hiruzen Exist';-inkscape-font-specification:'Hiruzen Exist'"
         id="path2219" />
      <path
         d="m -55.700882,-39.629662 q 0.288609,0.981273 -0.115444,1.50077 -0.346331,0.519497 -0.577219,0.981272 -0.519497,1.038994 -1.038994,2.077988 -0.461775,0.981273 -0.692663,2.077989 0.230888,0.115444 0.404053,0.173166 0.230888,0 0.404054,0 0.577219,0 1.038994,0 0.519497,-0.05772 0.92355,0.519497 -0.173165,0.115443 -0.346331,0.173165 -0.115444,0.05772 -0.404053,0.173166 0.63494,0.404053 0.692662,0.577219 0,0.28861 -0.115443,0.519497 -0.115444,0.173166 -0.230888,0.519497 0.634941,-0.05772 1.21216,-0.115444 0.577219,-0.115443 1.21216,-0.230887 -0.346332,0.865828 -0.692663,1.154438 -0.346331,0.230888 -0.981272,0.173166 h -1.673935 q -1.096717,0 -1.962545,-0.692663 -1.789379,-1.673935 -2.886095,-3.982811 -0.519497,-1.038995 -0.519497,-2.020267 0,-1.038994 0.404053,-2.020266 1.327604,-3.347871 3.290148,-5.945356 2.020267,-2.655208 4.790918,-4.964084 1.616213,-1.385325 2.828373,-2.308876 1.21216,-0.92355 2.366598,-1.616213 1.21216,-0.750385 2.539764,-1.385326 1.385326,-0.692662 3.290148,-1.558491 0.461775,-0.230888 1.038994,-0.230888 0.577219,-0.05772 1.096717,-0.173165 0.577219,-0.115444 1.096716,-0.173166 0.519497,-0.115444 1.154438,-0.230888 l 0.115444,-0.115443 h 0.05772 q 0.173166,-0.05772 0.346332,0.05772 0.173166,0.115443 0.288609,0.288609 0.173166,0.115444 0.28861,0.173166 0.173166,0.05772 0.346331,-0.173166 0.346332,-0.461775 0.634941,-0.288609 0.28861,0.173165 0.634941,0.230887 0.230888,0 0.692663,0.115444 0.519497,0.05772 1.038994,0.230888 0.519497,0.115443 0.981272,0.288609 0.461776,0.115444 0.692663,0.230888 1.673935,0.808106 2.828373,1.962544 1.21216,1.154438 1.673936,2.943817 0.115443,0.230888 0.173165,0.461775 0.115444,0.230888 0.346332,0.461776 1.154438,1.327603 1.673935,2.770651 0.577219,1.443047 0.808106,3.232426 0.115444,0.750385 0.230888,1.558492 0.115444,0.808106 0.173166,1.558491 0.05772,1.385326 -0.346332,2.655207 -0.404053,1.21216 -0.981272,2.366598 -0.634941,1.269882 -1.385326,2.539764 -0.750384,1.21216 -1.558491,2.42432 -0.28861,0.461775 -0.577219,0.865828 -0.230888,0.404054 -0.865829,0.346332 -0.230887,0 -0.404053,0.346331 -0.115444,0.28861 -0.346331,0.346332 -0.346332,0.115443 -0.404054,0.230887 -0.05772,0.115444 -0.05772,0.346332 0,0.750384 -0.577219,0.865828 -0.981273,0.461775 -1.731657,1.21216 -0.692663,0.750385 -1.443048,1.443048 -0.230888,0.230887 -0.461775,0.346331 -0.173166,0.115444 -0.461775,0.28861 -0.115444,-0.115444 -0.230888,-0.173166 -0.05772,-0.05772 -0.115444,-0.173166 -0.173166,0.115444 -0.404053,0.230888 -0.230888,0.115444 -0.346332,0.346331 -0.288609,0.461775 -0.808106,0.750385 -0.461775,0.288609 -0.923551,0.173166 -0.63494,-0.115444 -1.038994,0.115443 -0.404053,0.230888 -0.750384,0.692663 0.63494,1.154438 1.616213,1.789379 1.038994,0.634941 1.904822,1.616213 0.461776,0.461775 0.981273,0.923551 0.519497,0.404053 1.038994,0.92355 0.288609,0.28861 0.519497,0.461775 0.28861,0.173166 0.634941,0.346332 0.115444,0.05772 0.173166,0.05772 0.115444,0.05772 0.230887,0.230887 0.577219,0.981273 1.558492,1.154438 1.038994,0.230888 1.962544,0.519497 0.230888,0.05772 0.404054,0.115444 0.173165,0.05772 0.461775,0.28861 0.230887,0.173165 0.05772,0.750384 -0.173166,0.577219 -0.519497,0.461776 -0.634941,-0.28861 -1.096717,0 -0.404053,0.346331 -0.92355,0.404053 -0.461775,0.115444 -0.92355,0.288609 -0.404054,0.173166 -0.750385,0.115444 -1.731657,-0.288609 -3.463314,-0.577219 -1.673935,-0.288609 -3.116983,-1.269882 -0.92355,-0.634941 -1.789379,-1.21216 -0.808106,-0.519497 -1.269882,-1.500769 -0.115443,-0.115444 -0.173165,-0.115444 -0.981273,0.115444 -1.154438,-0.404053 -0.115444,-0.519497 -0.115444,-1.21216 l -1.500769,0.461775 q -0.05772,0.519497 -0.173166,1.096716 -0.05772,0.634941 -0.115444,1.269882 -0.115444,0.808107 -0.173166,1.558491 0,0.808107 -0.05772,1.616214 -0.05772,0.519497 -0.288609,0.865828 -0.173166,0.346332 -0.750385,0.461775 -0.230887,0.173166 -0.346331,0.404054 -0.115444,0.2886092 -0.28861,0.5194968 -0.115444,0.2886095 -0.230887,0.6349409 -1.50077,-0.9235504 -2.539764,-2.0779887 -0.981272,-1.096716 -1.154438,-2.943817 -0.173166,-1.616213 -0.404053,-3.174704 -0.230888,-1.616213 -0.28861,-3.232427 -0.05772,-1.327603 -0.115444,-2.712929 0,-1.443048 0.461776,-2.770651 0.115443,-0.28861 0.173165,-0.634941 0.115444,-0.404053 0.115444,-0.808107 -0.115444,-0.92355 0.05772,-1.731657 0.230888,-0.865828 0.461775,-1.673935 0.115444,-0.288609 0.173166,-0.634941 0.115444,-0.346331 0.173166,-0.634941 0.808106,-2.943817 2.020266,-5.599024 1.21216,-2.712929 2.943817,-5.194971 0.28861,0.05772 0.519497,0.115444 0.28861,0.05772 0.519497,0.173165 0.230888,0.05772 0.346332,0.28861 0.173165,0.173166 0.173165,0.634941 0,0.05772 0.28861,0.230887 0.346331,0.173166 0.577219,0.519497 0.230888,0.346332 0.750385,0.115444 0.115443,0.28861 0.230887,0.577219 0.115444,0.230888 0.577219,0.346332 0.346332,0.115443 0.519497,0.577219 0.173166,0.461775 0.173166,0.92355 v 1.038994 q -0.230888,-0.05772 -0.634941,-0.05772 v 0.05772 l -0.05772,0.115444 v 0.05772 q 0.115444,0.461775 0.115444,0.981272 0,0.461776 -0.288609,0.865829 -0.28861,0.288609 -0.28861,0.865828 0.115444,0.923551 -0.288609,1.673935 -0.346332,0.750385 -0.634941,1.616214 -0.115444,0.288609 -0.230888,0.634941 -0.115444,0.288609 0.115444,0.750384 0.115444,0.173166 -0.230888,0.577219 -0.288609,0.404054 0,0.865829 0.461775,-0.230888 1.096716,-0.230888 0.634941,-0.05772 0.981273,-0.750384 0.750384,-0.115444 1.154438,-0.750385 0.461775,-0.634941 1.096716,-0.923551 0.750385,-0.346331 1.154438,-0.865828 0.461775,-0.577219 0.981272,-1.038994 0.404053,-0.28861 0.634941,-0.692663 0.28861,-0.461775 0.981272,-0.577219 0.173166,0 0.173166,-0.28861 -0.05772,-0.404053 0,-0.519497 0.115444,-0.115444 0.519497,0 0.230888,-0.346331 0.230888,-0.634941 -0.115444,-0.461775 0.173165,-0.634941 0.28861,-0.230887 0.57722,-0.346331 0.288609,-0.115444 0.404053,-0.230888 0.115444,-0.173165 0.288609,-0.288609 0.346332,-0.230888 0.404054,-0.404053 0.05772,-0.173166 0.05772,-0.519498 0,-0.173165 0.115443,-0.346331 0.115444,-0.230888 0.230888,-0.519497 0.288609,0.115444 0.404053,0.230888 0.173166,0.115443 0.404054,0.173165 0.230887,-0.346331 0.346331,-0.577219 0.173166,-0.288609 0.461775,-0.634941 -0.115444,-0.115443 -0.346331,-0.288609 -0.173166,-0.173166 -0.28861,-0.346332 0.05772,-0.115443 0.05772,-0.115443 0.173166,0.05772 0.346332,0.05772 0.173165,0 0.404053,0.05772 -0.115444,-0.288609 -0.05772,-0.577219 0.05772,-0.346331 0.808107,-0.288609 -0.28861,-0.28861 -0.404054,-0.404053 -0.115444,-0.173166 -0.346331,-0.461776 0.634941,-1.154438 0.808106,-2.424319 0.173166,-1.327604 -0.05772,-2.655208 -0.808107,-0.750385 -1.731657,-1.038994 -0.923551,-0.28861 -1.904823,-0.577219 -1.904823,-0.461775 -3.982811,-0.346332 -0.692663,0.05772 -1.385326,0.230888 -0.692663,0.115444 -1.327604,0.346332 -0.577219,0.230887 -1.21216,0.346331 -0.634941,0.05772 -1.269881,0.230888 v -0.173166 q -0.05772,0 -0.05772,-0.05772 -0.404054,0.288609 -0.692663,0.519497 -0.28861,0.230888 -0.692663,0.404053 -2.539764,0.981273 -4.84864,2.943817 -0.577219,0.461775 -1.154438,0.808107 -0.577219,0.346331 -1.154438,0.692663 -0.288609,0.230887 -0.519497,0.577219 -0.230887,0.288609 -0.519497,0.519497 -0.173166,0.115444 -0.404053,0.115444 -0.173166,0 -0.404054,0.05772 0,0.05772 0,0.115443 0,0.05772 -0.115443,0.28861 -0.28861,0.288609 -0.577219,0.692663 -0.230888,0.346331 -0.519497,0.634941 -0.28861,0.346331 -0.577219,0.461775 -0.230888,0.115444 -0.750385,-0.28861 z m 13.045149,-14.199587 q 0,0.173165 0.05772,0.230887 0.230888,-0.115444 0.404054,-0.115444 0.230887,-0.05772 0.519497,-0.173165 -0.05772,0 -0.05772,-0.173166 -0.230888,0.115444 -0.461775,0.173166 -0.230888,0 -0.461776,0.05772 z m -6.69574,5.252693 q 0.404053,-0.173166 0.692663,-0.230888 0.346331,-0.115444 0.577219,-0.230888 0.865828,-0.461775 1.673935,-0.92355 0.808107,-0.519497 1.673935,-0.981272 1.385326,-0.634941 2.770651,-1.21216 1.385326,-0.634941 2.886095,-0.750385 0.692663,-0.05772 1.443048,-0.230888 0.750385,-0.173165 1.616213,-0.404053 -0.634941,-0.230887 -1.731657,-0.115444 -1.096716,0.115444 -2.42432,0.519497 -1.327604,0.346332 -2.770651,0.865829 -1.385326,0.519497 -2.655207,1.154438 -1.269882,0.634941 -2.251155,1.327604 -0.981272,0.634941 -1.500769,1.21216 z m 6.233965,-0.981273 q 0.173166,0.28861 0.346332,0.519497 0.173165,0.230888 0.692662,0 -0.288609,-0.115443 -0.461775,-0.288609 -0.173165,-0.230888 -0.288609,-0.346332 0.115444,-0.05772 0.346331,-0.05772 0.28861,-0.05772 0.404053,-0.173166 0.173166,-0.115444 0.28861,-0.28861 0.115444,-0.173165 0.230888,-0.230887 0.63494,-0.115444 1.21216,-0.28861 0.63494,-0.230887 1.269881,-0.346331 1.038995,-0.28861 2.020267,-0.404053 1.038994,-0.115444 2.020266,-0.28861 -0.288609,-0.115444 -0.577219,-0.230888 -0.230887,-0.173165 -0.519497,-0.288609 -0.288609,0.519497 -0.692663,0.461775 -0.346331,-0.05772 -0.750384,-0.115444 -1.096716,-0.115443 -2.135711,-0.115443 -0.981272,0 -2.020266,0.461775 -0.865829,0.404053 -1.731657,0.750384 -0.808107,0.28861 -1.673935,0.692663 -0.808107,0.404054 -1.558492,0.923551 -0.692662,0.519497 -1.327603,1.327603 v 0.230888 q 0.288609,-0.05772 0.461775,-0.05772 0.173166,-0.05772 0.404053,-0.115444 0.346332,0.634941 0.577219,0.692663 0.230888,0 0.634941,-0.519497 0.115444,-0.173166 0.230888,-0.346331 0.115444,-0.230888 0.288609,-0.346332 0.115444,0.05772 0.28861,0.115444 0.230887,0 0.404053,0.115444 0.115444,-0.173166 0.173166,-0.404053 0.115444,-0.230888 0.230887,-0.404054 0.461776,0 1.038995,-0.115444 0.05772,0 0.05772,-0.173165 0,-0.230888 0.115444,-0.346332 z m 6.580297,0 v 0.173166 h 2.020266 v -0.173166 z m -20.260387,9.69728 q 0.461775,-0.634941 0.92355,-1.038995 0.519497,-0.461775 0.750385,-1.269881 -0.519497,0.461775 -1.038994,1.038994 -0.461776,0.519497 -0.634941,1.269882 z m -4.213699,2.770651 q 0.461775,-0.634941 0.692663,-1.443048 0.288609,-0.808106 0.115444,-1.269881 -0.230888,0.63494 -0.692663,1.212159 -0.461775,0.577219 -0.115444,1.50077 z m 26.205743,4.733196 h -0.115444 q -0.05772,-0.05772 -0.05772,-0.05772 -0.634941,0.577219 -0.692663,0.808106 -0.05772,0.173166 0.05772,0.865829 0.230888,-0.461775 0.404054,-0.808107 0.230887,-0.346331 0.404053,-0.808106 z m -4.733196,4.040533 q 0.981272,-0.346332 1.962545,-1.096716 1.038994,-0.750385 1.327603,-1.269882 -0.981272,0.461775 -1.8471,0.981272 -0.865829,0.519497 -1.558492,1.269882 -0.750384,0.461775 -1.443047,0.808107 -0.634941,0.346331 -1.269882,0.808106 0,0.05772 0.115444,0.173166 0.692663,-0.28861 1.443047,-0.519497 0.808107,-0.28861 1.269882,-1.154438 z m 3.63648,-1.096716 q -0.634941,0.115444 -1.327604,0.750384 -0.692663,0.577219 -1.154438,1.50077 0.865829,-0.461775 1.385326,-0.981272 0.577219,-0.577219 1.096716,-1.269882 z m -12.987428,18.182399 q 0.115444,0.461775 0.173166,0.808106 0.05772,0.346332 0.05772,0.6926629 0.230887,0 0.288609,-0.057722 -0.05772,-0.288609 0.05772,-0.634941 0.115444,-0.346331 -0.577219,-0.808106 z"
         style="font-family:'Hiruzen Exist';-inkscape-font-specification:'Hiruzen Exist'"
         id="path2221" />
      <path
         d="m 25.052061,-38.648389 q 0.461775,0.461775 0.634941,0.92355 0.173166,0.461775 0.173166,0.92355 0,0.404054 -0.115444,0.808107 -0.115444,0.404053 -0.173166,0.808107 -0.230888,1.269881 -0.519497,2.539763 -0.230888,1.269882 -0.519497,2.539764 -0.115444,0.461775 -0.346332,0.865828 -0.230887,0.346332 -0.346331,0.750385 l -0.173166,0.692663 q -0.115444,0.461775 -0.230887,0.634941 -0.404054,0.750385 -0.692663,1.443047 -0.28861,0.692663 -0.750385,1.443048 -0.230887,0.404053 -0.981272,1.443047 -0.750385,1.038995 -1.616213,2.193433 -0.865829,1.096716 -1.673936,2.077988 -0.808106,0.923551 -1.269881,1.154438 -0.346332,0.173166 -0.634941,0.461775 -0.230888,0.28861 -0.461775,0.577219 -0.230888,0.346332 -0.404054,0.577219 -0.173165,0.28861 -0.692663,0.173166 -0.230887,0 -0.346331,0.173166 -0.865829,0.981272 -2.020267,1.154438 -1.096716,0.230887 -2.2511537,0.634941 -0.4040533,0.115443 -0.7503847,0.05772 -0.2886095,-0.05772 -0.3463314,-0.519498 -0.577219,0.05772 -1.0967161,0.05772 -0.5194971,0.05772 -1.0389942,0.05772 -1.8471008,0.115444 -3.4055922,-0.634941 -1.5007694,-0.750384 -2.82837311,-1.8471 -1.26988179,-1.038995 -2.65520749,-1.904823 -1.3276037,-0.923551 -2.6552074,-2.020267 -0.6349409,-0.519497 -1.154438,-1.21216 -0.5194971,-0.692662 -1.0967161,-1.327603 -0.1731657,-0.28861 -0.1154438,-0.346332 0.1154438,-0.519497 0.057722,-0.92355 -0.1154438,-0.404054 -0.2886095,-0.750385 -0.2308876,-0.404053 -0.4617753,-0.750385 -0.2308876,-0.346331 -0.3463314,-0.750384 -0.2886095,-0.865829 -0.5194971,-1.731657 -0.2308876,-0.865829 -0.2308876,-1.731657 -0.057722,-3.521036 0.2308876,-6.868907 0.2886095,-3.405592 1.6739352,-6.69574 0.4617752,-1.096716 0.8658285,-2.251154 0.4040533,-1.154438 0.9812723,-2.193432 0.4617752,-0.981273 1.0967161,-1.789379 0.6349409,-0.865829 1.4430475,-1.616214 0.4617752,-0.404053 0.8081066,-0.808106 0.3463315,-0.404054 0.4040534,-1.21216 0,-0.577219 0.4040533,-1.154438 0.46177517,-0.577219 1.03899418,-1.038994 0.63494091,-0.519498 1.32760372,-0.808107 0.7503847,-0.346331 1.3276037,-0.346331 1.3853256,0 2.5974856,1.038994 0.6349409,0.519497 1.2121599,0.865828 0.6349409,0.346332 1.2698818,0.346332 0.8081066,0 1.5584913,-0.519497 0.2886095,-0.173166 0.6349409,-0.173166 0.4040533,0 0.6926626,-0.05772 0.808107,-0.173166 1.50077,-0.28861 0.750384,-0.115443 1.500769,-0.404053 1.385326,-0.634941 2.655208,-0.634941 1.731657,0 3.232426,1.154438 1.327604,0.923551 2.770651,1.904823 1.443048,0.981272 2.251154,2.251154 0.865829,1.21216 1.269882,2.597486 0.461775,1.385325 0.577219,2.943817 0.173166,1.500769 0.173166,3.116982 l 0.05772,1.847101 v 0.865829 q 0,0.461775 -0.230888,0.808106 -0.173165,0.346332 -0.981272,0.404054 z M 13.623125,-54.868244 v -0.346331 q -0.750385,-0.115444 -1.443048,0.173166 -0.634941,0.288609 -1.269882,0.750384 0.692663,-0.173165 1.327604,-0.288609 0.692663,-0.173166 1.385326,-0.28861 z m -12.525653,0.577219 0.1731657,0.346332 q 0.1731657,-0.173166 0.3463314,-0.346332 0.2308876,-0.173165 0.4040533,-0.346331 L 1.9633005,-54.7528 q -0.1731657,0 -0.2308876,0.05772 z m 1.3853256,0.808107 q 0.2308876,0.115444 0.2886095,0.115444 0.1154438,-0.28861 0.2886095,-0.519497 0.1731657,-0.28861 0.4040533,-0.634941 -0.6926628,0 -0.8658285,0.288609 -0.1154438,0.28861 -0.1154438,0.750385 z m 18.0669554,5.945356 q -0.173166,-1.096716 -0.404054,-2.077989 -0.173165,-0.981272 -0.288609,-1.962544 -0.173166,-0.981273 -1.154438,-0.981273 -1.096716,0 -2.193432,-0.115443 -1.096717,-0.115444 -2.135711,0.05772 -0.92355,0.173165 -2.308876,0.750384 -1.327604,0.519497 -2.7129292,1.269882 -1.3276037,0.692663 -2.5397636,1.500769 -1.154438,0.808107 -1.7893789,1.443048 -0.4617752,0.519497 -1.0389943,0.92355 -0.577219,0.404054 -1.154438,0.865829 -0.1154438,0.115444 -0.2308876,0.173166 -0.057722,0.05772 -0.1154438,0.173165 -0.577219,1.327604 -1.154438,2.655208 -0.5194971,1.327604 -0.98127231,2.655207 -0.23088761,0.634941 -0.46177521,1.731657 -0.2308876,1.096716 -0.40405331,2.308876 -0.1731657,1.154438 -0.2886095,2.308876 -0.1154438,1.154438 -0.1154438,1.847101 0,0.808107 0.0577219,1.673935 0.0577219,0.865829 0.2308876,1.673935 0.1731657,1.673936 0.63494091226,3.347871 0.51949710774,1.616213 1.15443801774,3.174704 0.5194971,1.327604 2.0202665,1.269882 1.3276038,-0.115444 2.4243199,-0.577219 1.0967161,-0.461775 2.1357103,-1.096716 1.8471008,-1.096716 3.5787574,-2.770651 1.731657,-1.731657 3.232427,-3.751924 1.500769,-2.077988 2.597485,-4.271421 1.154438,-2.251154 1.731657,-4.329142 0.28861,-0.981272 0.404054,-1.962545 0.173165,-0.981272 0.346331,-2.020266 0.28861,-1.443048 0.461775,-2.886095 0.173166,-1.50077 0.461776,-3.001539 z m -0.865829,16.450742 q -0.346331,0.750384 -0.634941,1.327603 -0.288609,0.577219 -0.577219,1.21216 0.634941,-0.404053 0.981272,-0.981272 0.404054,-0.577219 0.230888,-1.558491 z m -2.482042,4.56003 q 0.461776,-0.28861 0.519497,-0.404054 0.115444,-0.173165 0.404054,-0.865828 -0.346332,0.461775 -0.519497,0.750385 -0.173166,0.230887 -0.404054,0.519497 z m -3.34787,1.962544 q -0.865828,0.461776 -1.154438,1.50077 0.461775,-0.230888 0.865829,-0.461775 0.404053,-0.28861 0.404053,-0.923551 0.461775,-0.173166 0.692663,-0.461775 0.288609,-0.346331 0.173165,-0.981272 -0.288609,0.346331 -0.519497,0.692662 -0.173165,0.346332 -0.461775,0.634941 z m -1.096716,8.19651 q -0.173166,-0.173165 -0.230888,-0.288609 -0.346331,0.173166 -0.692662,0.346331 -0.28861,0.230888 -0.634941,0.461775 0,0.115444 0.115443,0.230888 0.865829,-0.346331 1.443048,-0.750385 z"
         style="font-family:'Hiruzen Exist';-inkscape-font-specification:'Hiruzen Exist'"
         id="path2223" />
      <path
         d="m 49.87248,-18.33028 q -0.404053,-0.519497 0,-1.038995 -0.288609,-0.346331 -0.115444,-0.519497 0.173166,-0.173165 0.461776,-0.461775 -1.096717,-0.346331 -0.923551,-1.443047 0.115444,-0.577219 0.173166,-1.154438 0.05772,-0.577219 0.115444,-1.21216 0.05772,-0.28861 0.05772,-0.519497 0,-0.28861 0.115443,-0.577219 -0.346331,0.577219 -0.519497,0.92355 -0.173165,-1.500769 -0.05772,-2.886095 0.173166,-1.385326 0.461776,-2.770651 0.519497,-2.770652 1.038994,-5.483581 0.519497,-2.770651 1.154438,-5.48358 0.230887,-0.865829 0.519497,-1.731658 0.346331,-0.865828 0.634941,-1.673935 0.634941,-1.789379 1.21216,-3.463314 0.634941,-1.731657 1.327603,-3.405592 0.634941,-1.443047 1.385326,-2.770651 0.750385,-1.385326 1.50077,-2.770651 0.115443,-0.173166 0.173165,-0.28861 0.05772,-0.115444 0.115444,-0.288609 -0.519497,0 -0.750385,0.288609 -0.230887,0.28861 -0.519497,0.577219 l -3.405592,6.926628 q -0.404053,0.808107 -0.577219,1.673935 -0.173166,0.808107 -0.461775,1.673936 -0.28861,0.981272 -0.634941,2.077988 -0.28861,1.038994 -0.634941,2.193432 -0.230888,0.692663 -0.404053,1.443048 -0.173166,0.750384 -0.404054,1.500769 -0.115443,0.634941 -0.63494,1.327604 0.115443,-1.962545 0.577219,-3.867367 0.461775,-1.904823 0.92355,-3.809646 -0.461775,0.346331 -0.692663,0.92355 -0.230887,0.519498 -0.346331,0.981273 l -1.385326,5.77219 q -0.173166,0.692663 -0.230888,1.443047 -0.05772,0.692663 -0.519497,1.327604 -0.230887,0.28861 -0.346331,0.404053 -0.05772,0.05772 -0.577219,0.173166 0.05772,-0.577219 0.05772,-1.096716 0.05772,-0.577219 0.173166,-1.038994 0.346331,-1.616213 0.577219,-3.174705 0.288609,-1.558491 0.577219,-3.232426 0.692662,-2.655208 1.500769,-5.310415 0.865829,-2.655208 1.904823,-5.194971 l 0.519497,-1.443048 q 0.346331,-0.865828 0.981272,-2.13571 0.634941,-1.269882 1.50077,-2.482042 0.865828,-1.21216 1.904822,-2.077988 1.038995,-0.865829 2.135711,-0.865829 0.981272,0 2.077988,1.038994 0.115444,0.173166 0.461775,0.28861 0.577219,0.230888 1.154438,0.519497 0.634941,0.230888 1.096716,0.865829 0.05772,0.05772 0.28861,0.173165 0.519497,0 0.750385,0.230888 0.288609,0.173166 0.404053,0.519497 0.173166,0.28861 0.173166,0.634941 0.05772,0.346331 0.173165,0.692663 0.05772,0.115444 0.115444,0.288609 0.05772,0.115444 -0.05772,0.230888 -0.461775,0.577219 -0.634941,1.847101 -0.519497,-0.346332 -0.981272,-0.634941 -0.461775,-0.28861 -0.92355,-0.577219 -0.634941,0.808106 -1.21216,1.616213 -0.577219,0.808107 -1.21216,1.616213 -0.115444,0.173166 -0.346332,0.461775 -0.173165,0.230888 0.230888,0.577219 0.115444,0.230888 -0.173166,0.519498 -0.577219,0.808106 -1.154438,1.731657 -0.519497,0.865828 -0.865828,1.904822 -0.173166,0.461776 -0.634941,0.808107 -0.461775,0.346331 -0.404053,1.038994 -0.634941,0.461775 -0.865829,1.154438 -0.173166,0.692663 -0.461775,1.327604 -0.173166,0.404053 -0.05772,0.981272 0,0.115444 -0.115444,0.173166 -0.115444,0.05772 -0.230887,0.115444 -0.115444,0 -0.173166,0.115444 0,0.05772 0.230887,0.230887 v 0.173166 q -0.692662,0.981272 -1.269881,2.308876 -0.519498,1.269882 -0.865829,2.308876 -0.519497,2.020266 -1.038994,3.982811 -0.519497,1.962545 -1.038994,3.982811 -0.230888,0.634941 -0.404054,1.269882 -0.115443,0.634941 -0.346331,1.327604 -0.115444,0.461775 -0.28861,0.981272 -0.173165,0.519497 -0.288609,0.981272 -0.05772,0.230888 -0.115444,0.461776 0,0.230887 0.05772,0.346331 0.28861,0.28861 0.230888,0.519497 -0.05772,0.173166 -0.173166,0.461775 -0.115444,0.461776 -0.173166,0.981273 -0.05772,0.461775 0,0.92355 0.115444,0.634941 -0.115444,1.327604 -0.230887,0.634941 -0.461775,1.21216 z m 6.522575,-38.154177 q 0.346331,0.230888 0.461775,-0.05772 0.115444,-0.346331 0.173166,-0.461775 0.288609,-0.865828 1.096716,-1.558491 0.346331,-0.28861 0.634941,-0.692663 0.346331,-0.461775 0.692663,-0.981272 -0.808107,0.230887 -1.269882,0.577219 -0.404053,0.346331 -0.92355,1.096716 -0.115444,0.288609 -0.230888,0.634941 -0.115444,0.288609 -0.346331,0.404053 -0.346332,0.173166 -0.346332,0.461775 0,0.230888 0,0.519497 -0.750385,0.230888 -0.92355,0.923551 -0.173166,0.692663 -0.634941,1.038994 0.634941,-0.28861 0.981272,-0.750385 0.346332,-0.519497 0.634941,-1.154438 z m 2.366598,-0.92355 q 0.461775,-0.519497 0.865828,-0.981273 0.461776,-0.519497 0.981273,-1.154438 -0.808107,0.230888 -1.327604,0.577219 -0.461775,0.346332 -0.865828,0.923551 0.230887,0.461775 0.346331,0.634941 z m 0.750385,3.059261 q 0.05772,0.05772 0.115443,0.115443 0.05772,0 0.173166,0.115444 0.692663,-0.288609 0.692663,-1.385326 -0.173166,0.173166 -0.230888,0.28861 l -0.519497,0.577219 q -0.05772,0.115444 -0.230887,0.28861 z m -6.580297,4.848639 q 0.634941,-1.038994 1.154438,-2.13571 0.577219,-1.154438 1.038994,-2.366598 -0.404053,0.173166 -0.634941,0.288609 -0.230887,0.05772 -0.404053,0.173166 0.115444,0.519497 0.05772,0.750385 0,0.173166 -0.28861,0.577219 -0.461775,0.634941 -0.634941,1.327604 -0.173165,0.63494 -0.288609,1.385325 z m -28.399175,36.364798 q 0.115443,-0.519497 0.115443,-1.096716 0.05772,-0.519497 0.115444,-1.038995 l 0.173166,-1.789378 q 0,-0.230888 0,-0.404054 0.05772,-0.230887 0.05772,-0.461775 v -1.154438 q 0,-0.28861 0,-0.519497 0.05772,-0.230888 0.05772,-0.519497 -0.577219,1.731657 -0.692663,3.463314 -0.05772,1.731657 0.173166,3.521036 -0.346332,0.288609 -0.634941,0.577219 -0.28861,0.346331 -0.634941,0.634941 -0.115444,0 -0.115444,-0.115444 -0.05772,0 -0.05772,-0.05772 -0.173166,-0.173166 -0.173166,-0.404053 0.05772,-0.173166 0.05772,-0.404054 0.05772,-0.230887 0.05772,-0.461775 0.05772,-0.173166 -0.05772,-0.404053 -0.230887,-0.404053 -0.230887,-0.865829 0,-0.404053 -0.05772,-0.750384 -0.173166,-2.71293 0.173166,-5.252693 0.404053,-2.597486 0.92355,-5.194971 0.288609,-1.443048 0.461775,-2.828374 0.230888,-1.443047 0.577219,-2.828373 0.750385,-2.943817 1.385326,-5.945356 0.634941,-3.001538 1.558491,-6.003077 0.461775,-1.443048 0.808107,-2.886095 0.346331,-1.50077 0.981272,-2.886095 0.461775,-1.50077 1.154438,-2.770652 0.692663,-1.327603 2.366598,-1.673935 0.05772,-0.05772 0.230888,-0.05772 0.115443,0 0.173165,0 0.173166,0.346332 0.461776,0.519498 0.288609,0.115443 0.63494,0.173165 0.346332,0.05772 0.692663,0.173166 0.346332,0.05772 0.577219,0.346331 0.05772,0.05772 0.519497,0.05772 0.115444,0.05772 0.346332,0.115444 0.230887,0 0.230887,0.115444 0.173166,0.404053 0.519497,0.577219 0.346332,0.173166 0.692663,0.288609 0.404054,0.115444 0.750385,0.28861 0.346331,0.173166 0.461775,0.577219 0.173166,0.634941 0.28861,1.21216 0.115444,0.577219 0.230887,1.21216 0.115444,0.692663 0.115444,1.385325 0.05772,0.692663 0.173166,1.385326 0.115444,1.500769 0.288609,3.001539 0.230888,1.500769 0.346332,3.001539 0.115444,1.154438 0.115444,2.251154 0,1.096716 0.461775,2.193432 -0.115444,0.346331 -0.05772,0.692663 0.115444,0.288609 0.173166,0.634941 0.115443,0.346331 0.115443,0.692663 0.05772,0.288609 -0.115443,0.63494 -0.05772,0 -0.05772,0.05772 0,0 0.05772,0 0.63494,0.634941 0.577219,1.327604 0,0.692663 0,1.385326 0,0.230887 0.115443,0.461775 0.173166,0.230888 0.173166,0.519497 -0.05772,0.28861 0.05772,0.634941 0.115444,0.346331 0.230888,0.692663 0.115443,0.346331 0.173165,0.634941 0.115444,0.288609 0.230888,0.577219 -0.28861,0.461775 -0.461775,0.865828 -0.173166,0.346332 0.230887,0.865829 0.115444,-0.173166 0.173166,-0.346332 0.115444,-0.230887 0.288609,-0.519497 0.230888,0.692663 0.346332,1.327604 0.173166,0.577219 0.346331,1.21216 -0.115443,0.115444 -0.346331,0.230887 -0.173166,0.05772 -0.173166,0.173166 0,0.173166 0.115444,0.404053 0.173166,0.173166 0.28861,0.404054 0.115443,0.230887 0.346331,0.692663 0.230888,0.404053 0.461775,0.865828 0.28861,0.404053 0.577219,0.750385 0.28861,0.288609 0.519497,0.404053 0.461775,-0.461775 0.519497,-0.981272 0.115444,-0.577219 0.173166,-1.154438 0.05772,-1.327604 0.115444,-2.539764 0.115444,-1.21216 0.230887,-2.482042 0,-0.230887 0.173166,-0.404053 0.230888,-0.173166 0.404053,-0.404053 -0.115443,-0.230888 -0.230887,-0.404054 -0.115444,-0.173165 -0.28861,-0.404053 0.519497,-0.173166 0.923551,-0.173166 0,0.05772 0.05772,0.173166 0.05772,0.115444 -0.05772,0.173166 -0.115444,2.886095 -0.692663,5.656746 -0.115444,0.461775 -0.05772,0.923551 0.05772,0.404053 -0.05772,0.865828 -0.05772,0.461775 -0.115444,0.92355 -0.05772,0.404054 -0.05772,0.865829 0.461776,-0.461775 0.519498,-1.038994 0.05772,-0.634941 0.173165,-1.269882 v 1.731657 h 0.173166 l 0.404053,-0.05772 h 0.173166 q 0.115444,0.173166 0.05772,0.404053 0,0.230888 -0.05772,0.461776 -0.05772,0.173165 0,0.404053 0.115444,0.173166 0.461775,0.230888 -0.288609,0.173165 -0.346331,0.346331 0,0.115444 0,0.288609 0.05772,0.173166 0.115444,0.346332 0.115443,0.173166 0,0.404053 -0.404054,0.05772 -0.808107,0.115444 -0.346331,0.115444 -0.808107,-0.115444 -0.115443,-0.115444 -0.404053,-0.115444 -0.288609,0.05772 -0.519497,0.115444 -0.519497,0.115444 -0.981272,-0.115444 -0.461776,-0.173165 -0.923551,-0.461775 -0.634941,-0.461775 -1.21216,-0.981272 -0.577219,-0.519497 -1.038994,-1.154438 -0.404053,-0.577219 -0.692663,-1.21216 -0.230887,-0.634941 -0.634941,-1.269882 -0.115443,-0.288609 -0.230887,-0.634941 -0.05772,-0.404053 -0.230888,-0.692663 -0.461775,-0.808106 0.173166,-1.096716 -0.230888,-0.288609 -0.461775,-0.519497 -0.173166,-0.288609 -0.28861,-0.577219 -1.038994,-2.597485 -1.558491,-5.252693 -0.519497,-2.655207 -0.981273,-5.310415 -0.173165,-0.865828 -0.461775,-1.673935 -0.230887,-0.865828 -0.461775,-1.673935 -0.634941,0.92355 -0.634941,2.020267 0.05772,1.096716 -0.404053,2.251154 -0.115444,-0.173166 -0.173166,-0.28861 -0.05772,-0.173166 -0.115444,-0.519497 -0.05772,0.230888 -0.05772,0.692663 0.230888,0.461775 0.173166,0.92355 0,0.461775 -0.115444,0.923551 -0.05772,0.404053 -0.230887,0.865828 -0.115444,0.404053 -0.173166,0.923551 -0.173166,-0.115444 -0.288609,-0.173166 -0.115444,-0.115444 -0.230888,-0.230888 -0.173166,0.461775 -0.28861,0.923551 -0.115443,0.404053 -0.230887,0.92355 -0.404053,1.50077 -0.692663,3.174705 -0.230888,1.616213 -1.096716,3.05926 -0.05772,0.115444 -0.173166,0.346332 -0.05772,0.173166 0.05772,0.288609 0.28861,0.404054 0,0.981273 -0.461775,0.692662 -0.577219,1.500769 -0.05772,0.808107 -0.230888,1.558491 -0.288609,0.981273 -0.461775,1.962545 -0.173165,1.038994 -0.346331,2.020267 -0.05772,0.404053 -0.230888,0.750384 -0.173165,0.404054 -0.115444,0.865829 0,0.115444 -0.230887,0.346331 -0.230888,0.230888 -0.577219,0.404054 -0.346332,0.173165 -0.692663,0.288609 -0.288609,0.115444 -0.404053,0 -0.461775,-0.230888 -0.808107,-0.115444 -0.288609,0.115444 -0.634941,0.404054 -0.05772,-0.28861 -0.115444,-0.519498 0,-0.230887 -0.05772,-0.577219 -0.230888,0.28861 -0.461776,0.461776 -0.173165,0.230887 -0.461775,0.577219 -0.230888,-1.038995 -0.346331,-1.847101 z m 6.98435,-34.575419 q -0.865829,0.461775 -1.096716,1.21216 -0.230888,0.692663 -0.173166,1.500769 0.288609,-0.63494 0.634941,-1.327603 0.346331,-0.750385 0.634941,-1.385326 z m 1.847101,3.925089 q 0.05772,0.05772 0.230887,0.05772 0.05772,-0.230887 0.115444,-0.404053 0.05772,-0.230888 0.173166,-0.519497 -0.115444,-0.05772 -0.115444,-0.05772 h -0.05772 q -0.115444,0.288609 -0.230888,0.519497 -0.05772,0.173166 -0.115443,0.404053 z m -3.751924,9.985889 -0.173166,-0.115444 q -0.461775,1.616214 -0.92355,3.232427 -0.404053,1.616213 -0.404053,3.34787 0.404053,-1.616213 0.750384,-3.174704 0.346332,-1.616214 0.750385,-3.290149 z m -1.962545,1.269882 q -0.634941,2.308876 -1.269881,4.675474 -0.634941,2.308876 -0.808107,4.733196 0.404053,-2.366598 1.154438,-4.675474 0.808107,-2.366598 0.92355,-4.733196 z m 22.280654,4.617752 q 0.230888,-0.404053 0.173166,-0.519497 0,-0.115444 -0.346332,-0.577219 0.05772,0.404053 0.05772,0.634941 0.05772,0.230888 0.115444,0.461775 z m -9.40867,1.558491 v -1.8471 q -0.577219,0.519497 -0.346331,0.981272 0.230887,0.404053 0.346331,0.865828 z m 9.350948,-1.327603 q -0.115444,0.288609 -0.230887,0.519497 -0.05772,0.230887 0.230887,0.519497 z m -8.485119,5.079527 q 0.461775,-0.692663 -0.230888,-1.385326 0.05772,0.750385 0.230888,1.385326 0.05772,0.05772 0.05772,0.115444 0,0.05772 0.05772,0.115444 l 0.173165,0.519497 q 0.115444,0.115444 0.115444,0.230887 0,-0.634941 -0.05772,-0.750384 -0.05772,-0.115444 -0.346331,-0.230888 z m -13.9687,-1.21216 q -0.230888,0 -0.346332,-0.05772 -0.346331,0.634941 -0.346331,1.21216 0.05772,0.519497 0.288609,1.154438 0.115444,-0.577219 0.173166,-1.154438 0.05772,-0.577219 0.230888,-1.154438 z m -2.366598,2.251154 q 0.173166,0 0.230887,0.05772 v -0.750385 h -0.115443 q 0,0.404054 -0.115444,0.692663 z m 24.474086,-0.577219 q 0,0.404054 0,0.634941 0,0.173166 0.05772,0.461775 0.230887,-0.288609 0.230887,-0.519497 0.05772,-0.288609 -0.288609,-0.577219 z m -6.811185,2.71293 q 0.115444,-0.173166 0.28861,-0.173166 -0.230888,-0.28861 -0.346331,-0.750385 -0.05772,-0.461775 -0.808107,-0.519497 0.05772,0.115444 0.115444,0.173166 0.05772,0.05772 0.115444,0.173165 l 0.404053,0.750385 q 0.115444,0.115444 0.230887,0.346332 z m -16.739351,3.34787 q 0.577219,-1.096716 0.577219,-2.251154 0.05772,-1.154438 0.173166,-2.366598 -0.404053,1.154438 -0.634941,2.308876 -0.230888,1.096716 -0.115444,2.308876 z m 1.21216,1.327604 q 0.115444,0 0.173166,0 0.05772,0.05772 0.115444,0.05772 0.05772,-0.519497 0.115443,-1.096716 0.05772,-0.577219 0.173166,-1.096716 -0.05772,-0.05772 -0.230887,-0.05772 -0.05772,0.519497 -0.115444,1.038995 -0.05772,0.577219 -0.230888,1.154438 z m -1.096716,-0.346332 q -0.461775,0.692663 -0.519497,1.21216 0,0.577219 0.288609,1.269882 0.05772,-0.692663 0.05772,-1.327604 0.05772,-0.634941 0.173166,-1.154438 z m 1.096716,1.269882 h -0.05772 q 0,-0.05772 -0.05772,-0.115444 v 1.385326 h 0.115444 z"
         style="font-family:'Hiruzen Exist';-inkscape-font-specification:'Hiruzen Exist'"
         id="path2225" />
      <path
         d="m 87.160838,-52.443924 q 0.05772,-0.288609 0.115443,-0.461775 0.05772,-0.230888 0.519497,0.115444 0.28861,0.288609 0.577219,0.115444 0.28861,-0.230888 0.519498,0 0.05772,-0.230888 0,-0.346332 0,-0.115444 0.115443,-0.230887 0.404054,-0.404054 0.750385,-0.692663 0.346332,-0.28861 0.692663,-0.634941 0.346331,-0.404053 0.634941,-0.808107 0.346331,-0.461775 0.634941,-0.808106 0.519497,-0.519497 0.865828,-0.519497 0.519497,0 0.865829,0.808106 0.173165,0.28861 0.288609,0.923551 0.634941,-0.05772 1.21216,-0.115444 0.634941,-0.05772 1.269882,-0.173166 0.981272,-0.173166 1.789379,-0.173166 1.500769,0 3.174705,0.461776 0.5195,0.230887 1.03899,0.288609 0.5195,0.05772 0.98128,0.28861 2.19343,0.981272 3.23242,2.712929 1.09672,1.731657 1.44305,3.982811 0.11544,0.634941 0.23089,1.327604 0.11544,0.634941 0.57722,1.154438 0.34633,0.461775 0.34633,0.981272 0.11544,1.616213 0,3.232427 -0.11545,1.616213 -0.75039,3.174704 -0.46177,1.154438 -0.92355,2.251154 -0.46177,1.038995 -0.92355,2.193433 -0.17316,0.461775 -0.51949,0.808106 -0.28861,0.346332 -0.57722,0.750385 -0.86583,1.269882 -1.78938,2.597485 -0.92355,1.327604 -1.90483,2.597486 -1.09671,1.500769 -2.193428,2.943817 -1.038994,1.443047 -2.251154,2.886095 -0.461775,0.519497 -0.981272,1.038994 -0.519497,0.461775 -1.096716,0.981272 -0.28861,0.28861 -0.519497,0.577219 -0.230888,0.28861 -0.519497,0.57722 -0.173166,0.173165 -0.28861,0.230887 -0.92355,0.461775 -1.558491,1.154438 -0.634941,0.750385 -1.385326,1.21216 -1.500769,1.038994 -3.001539,2.077988 -1.500769,1.038995 -3.34787,1.327604 -0.115444,0.05772 -0.288609,0.05772 -0.115444,0 -0.28861,0.05772 l -1.096716,0.173166 q -0.346331,0.115444 -0.577219,0.115444 -0.230888,0 -0.750385,-0.28861 -0.461775,-0.230888 -0.981272,-0.577219 -0.461775,-0.346331 -0.865829,-0.750385 -0.404053,-0.346331 -0.577219,-0.634941 -0.288609,-0.519497 -0.63494,-0.981272 -0.404054,-0.461775 -0.692663,-0.981272 -0.28861,-0.634941 -0.519497,-1.21216 -0.28861,-0.577219 -0.346332,-1.21216 -0.115444,-2.077989 1.847101,-3.232427 0.115444,0.115444 0.230888,0.230888 0.173165,0.115444 0.288609,0.28861 0.115444,0.346331 0.346332,0.692662 0.230887,0.346332 0.346331,0.692663 0.230888,0.634941 0.577219,0.692663 0.346331,0.05772 0.808107,-0.115444 -0.230888,0.750385 -0.519498,1.443048 v 0.05772 q 0.404054,-0.115444 0.692663,-0.28861 0.346332,-0.230887 0.750385,-0.461775 -1.154438,-1.558491 -2.077988,-3.34787 -0.923551,-1.789379 -1.038995,-3.751924 -0.173165,-2.13571 0.115444,-4.155977 0.346332,-2.077988 0.865829,-4.098255 0.05772,-0.288609 0.05772,-0.461775 0,-0.230888 0.05772,-0.404053 -0.288609,-0.230888 -0.404053,-0.230888 -2.712929,-0.173166 -3.63648,-2.943817 -0.115443,-0.404053 -0.288609,-0.692663 -0.230888,-0.346331 -0.404053,-0.808106 -0.230888,-0.692663 -0.28861,-1.327604 -0.115444,-0.634941 0.461775,-1.327604 0.115444,-0.115443 0.115444,-0.288609 0,-0.230888 0.05772,-0.461775 0.461775,-1.50077 1.616213,-3.001539 1.154438,-1.558492 2.42432,-2.42432 0.05772,-0.05772 0.115444,-0.05772 0.115444,0 0.115444,-0.05772 0.519497,-1.154438 1.558491,-1.731657 1.096716,-0.634941 2.020266,-1.327604 0.57722,-0.404053 1.154439,-0.750384 0.63494,-0.346332 1.269881,-0.808107 0.230888,-0.115444 0.461776,-0.05772 0.288609,0 0.577219,-0.05772 z m 11.890711,-0.981272 v -0.173166 q -0.577219,-0.05772 -1.154438,-0.115444 -0.577219,-0.05772 -1.21216,-0.05772 -0.346331,-0.05772 -0.750385,0 -0.404053,0 -0.808106,0.05772 -0.115444,0.05772 -0.28861,0.230888 -0.115443,0.115444 -0.346331,0.28861 1.327604,-0.05772 2.366598,-0.115444 1.038994,-0.05772 2.193432,-0.115444 z m -0.750385,0.750385 q 0.634941,0.404053 1.269882,0.404053 0.577224,0 1.154434,-0.173166 -0.51949,-0.461775 -1.096712,-0.461775 -0.346331,0 -0.692663,0.115444 -0.288609,0.05772 -0.634941,0.115444 z m -11.371214,1.789379 q 0.230888,-0.05772 0.346331,-0.05772 0.173166,-0.05772 0.28861,-0.173166 v -0.115444 q -0.230888,0.05772 -0.346332,0.173166 -0.115443,0.05772 -0.288609,0.173166 z m -1.558491,0.808106 q 0.461775,-0.230887 0.808106,-0.346331 0.346332,-0.115444 0.634941,-0.404054 -0.865828,0 -1.443047,0.750385 z m -1.385326,2.077989 q 0.865829,-0.28861 1.731657,-0.692663 0.865829,-0.461775 1.558491,-1.327604 -1.154438,0.28861 -1.962544,0.865829 -0.808107,0.519497 -1.327604,1.154438 -0.346331,0.115443 -0.750385,0.288609 -0.404053,0.173166 -0.92355,0.404053 0.519497,0.230888 0.519497,0.230888 0.346331,-0.115444 0.692663,-0.288609 0.346331,-0.173166 0.461775,-0.634941 z m -0.28861,-0.923551 -0.05772,-0.173166 q -0.404054,0.173166 -0.865829,0.57722 0.115444,0.115443 0.230888,0.173165 0.115443,-0.115444 0.173165,-0.115444 l 0.404054,-0.288609 q 0.115443,-0.115444 0.115443,-0.173166 z m 21.530267,2.655208 q -0.98127,-1.154438 -2.30887,-1.616214 -1.26989,-0.461775 -2.53977,-0.865828 -0.981269,-0.404053 -2.135707,-0.404053 -1.096717,0 -2.193433,0.115443 -0.750384,0.05772 -1.327603,0.346332 -0.577219,0.288609 -0.750385,1.154438 0,0.230887 -0.05772,0.288609 -1.21216,2.308876 -2.366598,4.56003 -1.096716,2.193433 -2.13571,4.617753 -0.634941,1.500769 -1.327604,3.001538 -0.692663,1.50077 -1.154438,3.116983 -0.519497,1.731657 -0.981272,3.521036 -0.404054,1.731657 -0.865829,3.521036 -0.173166,0.634941 -0.288609,1.327604 -0.115444,0.634941 -0.346332,1.21216 -0.404053,0.981272 0.28861,1.673935 0.115444,0.115444 0.115444,0.230887 0,0.115444 0.05772,0.230888 0.519498,-0.461775 0.981273,-0.865829 0.461775,-0.461775 0.92355,-0.92355 2.020267,-1.847101 3.867368,-3.694202 0.63494,-0.577219 1.212159,-1.096716 0.577219,-0.577219 1.096717,-1.154438 0.404053,-0.404053 0.63494,-0.808106 0.230888,-0.461776 0.519498,-0.808107 0.63494,-0.750385 1.327603,-1.385326 0.692663,-0.692662 1.269882,-1.443047 1.443048,-1.962545 2.943817,-3.809646 1.55849,-1.8471 2.8861,-3.867367 0.98127,-1.500769 1.67393,-2.943817 0.69266,-1.443047 0.98127,-3.232426 z m -26.609794,8.19651 q 0.519497,0.808106 1.21216,0.750384 0.692663,-0.05772 1.385326,-0.115444 0.634941,-1.673935 1.269882,-3.232426 0.63494,-1.558491 1.269881,-3.232426 -1.731657,1.212159 -3.05926,2.597485 -1.327604,1.385326 -2.077989,3.232427 z m 9.293226,-0.404054 q -0.230887,-0.115444 -0.288609,-0.173165 -0.115444,0.115443 -0.230888,0.288609 -0.115444,0.173166 -0.230887,0.346331 l 0.173165,0.173166 q 0.346332,-0.288609 0.577219,-0.634941 z m 4.502309,16.219854 q -0.634941,-0.173165 -0.750385,-0.05772 -0.115444,0.05772 -0.230888,0.808106 0.28861,-0.173166 0.461775,-0.346331 0.230888,-0.230888 0.519498,-0.404054 z m -3.867368,1.673936 q -0.750385,0.288609 -1.327604,0.865828 -0.519497,0.519497 -1.154438,1.038994 0.519498,-0.115444 0.865829,-0.173165 0.346331,-0.115444 0.692663,-0.230888 -0.115444,0.115444 -0.173166,0.173166 0,0.05772 -0.115444,0.173165 l -0.634941,0.808107 q -0.05772,0.115444 -0.288609,0.346331 0.404053,0.461776 0.692663,0.346332 0.346331,-0.115444 0.634941,-0.346332 0.808106,-0.808106 1.443047,-1.558491 0.692663,-0.750385 1.50077,-1.558491 -0.346332,-0.115444 -0.404054,-0.28861 -0.05772,-0.173165 -0.05772,-0.404053 0,-0.230888 0,-0.404053 0.05772,-0.230888 -0.05772,-0.404054 -0.346331,0.173166 -0.404053,0.404054 0,0.230887 0,0.519497 0.05772,0.230887 0.05772,0.519497 0.05772,0.230887 -0.173166,0.404053 -0.404053,-0.519497 -0.692663,-0.981272 -0.115443,0.173166 -0.230887,0.346331 -0.05772,0.173166 -0.173166,0.404054 z m -5.77219,5.194971 q 0.28861,-0.28861 0.577219,-0.577219 0.28861,-0.230888 0.577219,-0.519497 -0.404053,-0.173166 -0.865828,0.05772 -0.404054,0.28861 -1.558492,1.269882 0.692663,-0.230887 1.327604,-0.230887 0.173166,0.519497 -0.28861,0.634941 -0.404053,0.115443 -0.692662,0.404053 0.692662,0.115444 1.154438,-0.05772 0.519497,-0.115444 0.92355,-0.404053 0.461775,-0.28861 0.865829,-0.634941 0.404053,-0.346332 0.865828,-0.577219 -0.115444,-0.05772 -0.173166,-0.173166 0,-0.05772 -0.115443,-0.05772 -0.461776,0.173166 -0.981273,0.230888 -0.461775,0.115444 -0.808106,0.519497 -0.115444,0.115444 -0.346332,0.05772 -0.230887,0 -0.461775,0.05772 z m 1.616213,1.8471 q 1.038995,-0.346331 1.731657,-0.92355 0.692663,-0.519497 1.50077,-1.327604 -0.808107,0.461776 -1.443048,0.750385 -0.634941,0.28861 -1.269882,0.692663 -0.115443,0.05772 -0.230887,0.288609 -0.05772,0.230888 -0.28861,0.519497 z m -0.865828,1.21216 q 0.05772,-0.230887 0.05772,-0.461775 0.05772,-0.230887 0.115443,-0.404053 0,-0.115444 -0.115443,-0.115444 -0.115444,0.173166 -0.230888,0.28861 -0.115444,0.173165 -0.230888,0.288609 -0.115443,-0.115444 -0.230887,-0.173166 -0.05772,-0.05772 -0.173166,-0.173165 -0.230887,0.115443 -0.404053,0.288609 -0.115444,0.173166 -0.28861,0.28861 0.346332,0.461775 0.692663,0.346331 0.404053,-0.05772 0.808107,-0.173166 z"
         style="font-family:'Hiruzen Exist';-inkscape-font-specification:'Hiruzen Exist'"
         id="path2227" />
      <path
         d="m 115.96411,-39.629662 q 0.28861,0.981273 -0.11544,1.50077 -0.34633,0.519497 -0.57722,0.981272 -0.5195,1.038994 -1.039,2.077988 -0.46177,0.981273 -0.69266,2.077989 0.23089,0.115444 0.40405,0.173166 0.23089,0 0.40406,0 0.57722,0 1.03899,0 0.5195,-0.05772 0.92355,0.519497 -0.17316,0.115443 -0.34633,0.173165 -0.11544,0.05772 -0.40405,0.173166 0.63494,0.404053 0.69266,0.577219 0,0.28861 -0.11544,0.519497 -0.11545,0.173166 -0.23089,0.519497 0.63494,-0.05772 1.21216,-0.115444 0.57722,-0.115443 1.21216,-0.230887 -0.34633,0.865828 -0.69266,1.154438 -0.34634,0.230888 -0.98128,0.173166 h -1.67393 q -1.09672,0 -1.96255,-0.692663 -1.78937,-1.673935 -2.88609,-3.982811 -0.5195,-1.038995 -0.5195,-2.020267 0,-1.038994 0.40406,-2.020266 1.3276,-3.347871 3.29014,-5.945356 2.02027,-2.655208 4.79092,-4.964084 1.61621,-1.385325 2.82837,-2.308876 1.21216,-0.92355 2.3666,-1.616213 1.21216,-0.750385 2.53977,-1.385326 1.38532,-0.692662 3.29014,-1.558491 0.46178,-0.230888 1.039,-0.230888 0.57722,-0.05772 1.09671,-0.173165 0.57722,-0.115444 1.09672,-0.173166 0.5195,-0.115444 1.15444,-0.230888 l 0.11544,-0.115443 h 0.0577 q 0.17317,-0.05772 0.34634,0.05772 0.17316,0.115443 0.28861,0.288609 0.17316,0.115444 0.28861,0.173166 0.17316,0.05772 0.34633,-0.173166 0.34633,-0.461775 0.63494,-0.288609 0.28861,0.173165 0.63494,0.230887 0.23089,0 0.69266,0.115444 0.5195,0.05772 1.039,0.230888 0.51949,0.115443 0.98127,0.288609 0.46177,0.115444 0.69266,0.230888 1.67394,0.808106 2.82837,1.962544 1.21216,1.154438 1.67394,2.943817 0.11544,0.230888 0.17316,0.461775 0.11545,0.230888 0.34634,0.461776 1.15443,1.327603 1.67393,2.770651 0.57722,1.443047 0.80811,3.232426 0.11544,0.750385 0.23089,1.558492 0.11544,0.808106 0.17316,1.558491 0.0577,1.385326 -0.34633,2.655207 -0.40405,1.21216 -0.98127,2.366598 -0.63494,1.269882 -1.38533,2.539764 -0.75038,1.21216 -1.55849,2.42432 -0.28861,0.461775 -0.57722,0.865828 -0.23089,0.404054 -0.86583,0.346332 -0.23088,0 -0.40405,0.346331 -0.11544,0.28861 -0.34633,0.346332 -0.34633,0.115443 -0.40406,0.230887 -0.0577,0.115444 -0.0577,0.346332 0,0.750384 -0.57722,0.865828 -0.98127,0.461775 -1.73165,1.21216 -0.69267,0.750385 -1.44305,1.443048 -0.23089,0.230887 -0.46178,0.346331 -0.17316,0.115444 -0.46177,0.28861 -0.11544,-0.115444 -0.23089,-0.173166 -0.0577,-0.05772 -0.11544,-0.173166 -0.17317,0.115444 -0.40406,0.230888 -0.23088,0.115444 -0.34633,0.346331 -0.28861,0.461775 -0.8081,0.750385 -0.46178,0.288609 -0.92355,0.173166 -0.63495,-0.115444 -1.039,0.115443 -0.40405,0.230888 -0.75038,0.692663 0.63494,1.154438 1.61621,1.789379 1.03899,0.634941 1.90482,1.616213 0.46178,0.461775 0.98128,0.923551 0.51949,0.404053 1.03899,0.92355 0.28861,0.28861 0.5195,0.461775 0.28861,0.173166 0.63494,0.346332 0.11544,0.05772 0.17316,0.05772 0.11545,0.05772 0.23089,0.230887 0.57722,0.981273 1.55849,1.154438 1.039,0.230888 1.96255,0.519497 0.23088,0.05772 0.40405,0.115444 0.17317,0.05772 0.46178,0.28861 0.23088,0.173165 0.0577,0.750384 -0.17317,0.577219 -0.5195,0.461776 -0.63494,-0.28861 -1.09672,0 -0.40405,0.346331 -0.92355,0.404053 -0.46177,0.115444 -0.92355,0.288609 -0.40405,0.173166 -0.75038,0.115444 -1.73166,-0.288609 -3.46332,-0.577219 -1.67393,-0.288609 -3.11698,-1.269882 -0.92355,-0.634941 -1.78938,-1.21216 -0.8081,-0.519497 -1.26988,-1.500769 -0.11544,-0.115444 -0.17316,-0.115444 -0.98128,0.115444 -1.15444,-0.404053 -0.11545,-0.519497 -0.11545,-1.21216 l -1.50077,0.461775 q -0.0577,0.519497 -0.17316,1.096716 -0.0577,0.634941 -0.11545,1.269882 -0.11544,0.808107 -0.17316,1.558491 0,0.808107 -0.0577,1.616214 -0.0577,0.519497 -0.28861,0.865828 -0.17317,0.346332 -0.75039,0.461775 -0.23089,0.173166 -0.34633,0.404054 -0.11544,0.2886092 -0.28861,0.5194968 -0.11544,0.2886095 -0.23089,0.6349409 -1.50077,-0.9235504 -2.53976,-2.0779887 -0.98127,-1.096716 -1.15444,-2.943817 -0.17316,-1.616213 -0.40405,-3.174704 -0.23089,-1.616213 -0.28861,-3.232427 -0.0577,-1.327603 -0.11544,-2.712929 0,-1.443048 0.46177,-2.770651 0.11544,-0.28861 0.17317,-0.634941 0.11544,-0.404053 0.11544,-0.808107 -0.11544,-0.92355 0.0577,-1.731657 0.23089,-0.865828 0.46178,-1.673935 0.11544,-0.288609 0.17316,-0.634941 0.11545,-0.346331 0.17317,-0.634941 0.80811,-2.943817 2.02027,-5.599024 1.21216,-2.712929 2.94381,-5.194971 0.28861,0.05772 0.5195,0.115444 0.28861,0.05772 0.5195,0.173165 0.23088,0.05772 0.34633,0.28861 0.17316,0.173166 0.17316,0.634941 0,0.05772 0.28861,0.230887 0.34633,0.173166 0.57722,0.519497 0.23089,0.346332 0.75039,0.115444 0.11544,0.28861 0.23088,0.577219 0.11545,0.230888 0.57722,0.346332 0.34633,0.115443 0.5195,0.577219 0.17317,0.461775 0.17317,0.92355 v 1.038994 q -0.23089,-0.05772 -0.63494,-0.05772 v 0.05772 l -0.0577,0.115444 v 0.05772 q 0.11545,0.461775 0.11545,0.981272 0,0.461776 -0.28861,0.865829 -0.28861,0.288609 -0.28861,0.865828 0.11544,0.923551 -0.28861,1.673935 -0.34633,0.750385 -0.63494,1.616214 -0.11545,0.288609 -0.23089,0.634941 -0.11544,0.288609 0.11544,0.750384 0.11545,0.173166 -0.23088,0.577219 -0.28861,0.404054 0,0.865829 0.46177,-0.230888 1.09671,-0.230888 0.63494,-0.05772 0.98127,-0.750384 0.75039,-0.115444 1.15444,-0.750385 0.46178,-0.634941 1.09672,-0.923551 0.75038,-0.346331 1.15444,-0.865828 0.46177,-0.577219 0.98127,-1.038994 0.40405,-0.28861 0.63494,-0.692663 0.28861,-0.461775 0.98127,-0.577219 0.17317,0 0.17317,-0.28861 -0.0577,-0.404053 0,-0.519497 0.11544,-0.115444 0.5195,0 0.23088,-0.346331 0.23088,-0.634941 -0.11544,-0.461775 0.17317,-0.634941 0.28861,-0.230887 0.57722,-0.346331 0.28861,-0.115444 0.40405,-0.230888 0.11544,-0.173165 0.28861,-0.288609 0.34633,-0.230888 0.40405,-0.404053 0.0577,-0.173166 0.0577,-0.519498 0,-0.173165 0.11544,-0.346331 0.11544,-0.230888 0.23089,-0.519497 0.28861,0.115444 0.40405,0.230888 0.17317,0.115443 0.40405,0.173165 0.23089,-0.346331 0.34634,-0.577219 0.17316,-0.288609 0.46177,-0.634941 -0.11544,-0.115443 -0.34633,-0.288609 -0.17317,-0.173166 -0.28861,-0.346332 0.0577,-0.115443 0.0577,-0.115443 0.17317,0.05772 0.34633,0.05772 0.17317,0 0.40406,0.05772 -0.11545,-0.288609 -0.0577,-0.577219 0.0577,-0.346331 0.80811,-0.288609 -0.28861,-0.28861 -0.40405,-0.404053 -0.11545,-0.173166 -0.34633,-0.461776 0.63494,-1.154438 0.8081,-2.424319 0.17317,-1.327604 -0.0577,-2.655208 -0.80811,-0.750385 -1.73166,-1.038994 -0.92355,-0.28861 -1.90482,-0.577219 -1.90482,-0.461775 -3.98281,-0.346332 -0.69266,0.05772 -1.38533,0.230888 -0.69266,0.115444 -1.3276,0.346332 -0.57722,0.230887 -1.21216,0.346331 -0.63494,0.05772 -1.26988,0.230888 v -0.173166 q -0.0577,0 -0.0577,-0.05772 -0.40406,0.288609 -0.69267,0.519497 -0.28861,0.230888 -0.69266,0.404053 -2.53976,0.981273 -4.84864,2.943817 -0.57722,0.461775 -1.15444,0.808107 -0.57722,0.346331 -1.15443,0.692663 -0.28861,0.230887 -0.5195,0.577219 -0.23089,0.288609 -0.5195,0.519497 -0.17316,0.115444 -0.40405,0.115444 -0.17317,0 -0.40406,0.05772 0,0.05772 0,0.115443 0,0.05772 -0.11544,0.28861 -0.28861,0.288609 -0.57722,0.692663 -0.23089,0.346331 -0.5195,0.634941 -0.2886,0.346331 -0.57721,0.461775 -0.23089,0.115444 -0.75039,-0.28861 z m 13.04515,-14.199587 q 0,0.173165 0.0577,0.230887 0.23089,-0.115444 0.40406,-0.115444 0.23088,-0.05772 0.51949,-0.173165 -0.0577,0 -0.0577,-0.173166 -0.23089,0.115444 -0.46177,0.173166 -0.23089,0 -0.46178,0.05772 z m -6.69574,5.252693 q 0.40405,-0.173166 0.69266,-0.230888 0.34633,-0.115444 0.57722,-0.230888 0.86583,-0.461775 1.67394,-0.92355 0.8081,-0.519497 1.67393,-0.981272 1.38533,-0.634941 2.77065,-1.21216 1.38533,-0.634941 2.8861,-0.750385 0.69266,-0.05772 1.44305,-0.230888 0.75038,-0.173165 1.61621,-0.404053 -0.63494,-0.230887 -1.73166,-0.115444 -1.09671,0.115444 -2.42432,0.519497 -1.3276,0.346332 -2.77065,0.865829 -1.38532,0.519497 -2.65521,1.154438 -1.26988,0.634941 -2.25115,1.327604 -0.98127,0.634941 -1.50077,1.21216 z m 6.23397,-0.981273 q 0.17316,0.28861 0.34633,0.519497 0.17316,0.230888 0.69266,0 -0.28861,-0.115443 -0.46178,-0.288609 -0.17316,-0.230888 -0.2886,-0.346332 0.11544,-0.05772 0.34633,-0.05772 0.28861,-0.05772 0.40405,-0.173166 0.17317,-0.115444 0.28861,-0.28861 0.11544,-0.173165 0.23089,-0.230887 0.63494,-0.115444 1.21216,-0.28861 0.63494,-0.230887 1.26988,-0.346331 1.03899,-0.28861 2.02027,-0.404053 1.03899,-0.115444 2.02026,-0.28861 -0.28861,-0.115444 -0.57722,-0.230888 -0.23088,-0.173165 -0.51949,-0.288609 -0.28861,0.519497 -0.69267,0.461775 -0.34633,-0.05772 -0.75038,-0.115444 -1.09672,-0.115443 -2.13571,-0.115443 -0.98127,0 -2.02027,0.461775 -0.86583,0.404053 -1.73166,0.750384 -0.8081,0.28861 -1.67393,0.692663 -0.80811,0.404054 -1.55849,0.923551 -0.69267,0.519497 -1.32761,1.327603 v 0.230888 q 0.28861,-0.05772 0.46178,-0.05772 0.17316,-0.05772 0.40405,-0.115444 0.34633,0.634941 0.57722,0.692663 0.23089,0 0.63494,-0.519497 0.11545,-0.173166 0.23089,-0.346331 0.11544,-0.230888 0.28861,-0.346332 0.11544,0.05772 0.28861,0.115444 0.23089,0 0.40405,0.115444 0.11545,-0.173166 0.17317,-0.404053 0.11544,-0.230888 0.23089,-0.404054 0.46177,0 1.03899,-0.115444 0.0577,0 0.0577,-0.173165 0,-0.230888 0.11545,-0.346332 z m 6.58029,0 v 0.173166 h 2.02027 v -0.173166 z m -20.26038,9.69728 q 0.46177,-0.634941 0.92355,-1.038995 0.51949,-0.461775 0.75038,-1.269881 -0.5195,0.461775 -1.03899,1.038994 -0.46178,0.519497 -0.63494,1.269882 z m -4.2137,2.770651 q 0.46177,-0.634941 0.69266,-1.443048 0.28861,-0.808106 0.11544,-1.269881 -0.23088,0.63494 -0.69266,1.212159 -0.46178,0.577219 -0.11544,1.50077 z m 26.20574,4.733196 H 136.744 q -0.0577,-0.05772 -0.0577,-0.05772 -0.63494,0.577219 -0.69266,0.808106 -0.0577,0.173166 0.0577,0.865829 0.23089,-0.461775 0.40406,-0.808107 0.23088,-0.346331 0.40405,-0.808106 z m -4.7332,4.040533 q 0.98128,-0.346332 1.96255,-1.096716 1.03899,-0.750385 1.3276,-1.269882 -0.98127,0.461775 -1.8471,0.981272 -0.86583,0.519497 -1.55849,1.269882 -0.75039,0.461775 -1.44305,0.808107 -0.63494,0.346331 -1.26988,0.808106 0,0.05772 0.11544,0.173166 0.69267,-0.28861 1.44305,-0.519497 0.80811,-0.28861 1.26988,-1.154438 z m 3.63648,-1.096716 q -0.63494,0.115444 -1.3276,0.750384 -0.69266,0.577219 -1.15444,1.50077 0.86583,-0.461775 1.38533,-0.981272 0.57722,-0.577219 1.09671,-1.269882 z m -12.98742,18.182399 q 0.11544,0.461775 0.17316,0.808106 0.0577,0.346332 0.0577,0.6926629 0.23089,0 0.28861,-0.057722 -0.0577,-0.288609 0.0577,-0.634941 0.11545,-0.346331 -0.57721,-0.808106 z"
         style="font-family:'Hiruzen Exist';-inkscape-font-specification:'Hiruzen Exist'"
         id="path2229" />
      <path
         d="m 174.55181,-25.083743 q -0.11545,0.05772 -0.28861,0.115444 -0.11545,0 -0.11545,0.115444 -0.28861,0.634941 -0.51949,1.269882 -0.23089,0.577219 -0.34633,1.21216 -0.11545,0.519497 -0.34634,0.577219 -0.23088,0.05772 -0.86582,-0.115444 0.28861,0.461775 0.46177,0.808106 0.23089,0.28861 0.46178,0.577219 -0.34633,0.230888 -0.69267,0.461776 -0.34633,0.173165 -0.75038,0.461775 -0.11544,-0.115444 -0.23089,-0.173166 -0.0577,-0.05772 -0.11544,-0.115444 -0.23089,0.519497 -0.40406,1.038995 -0.17316,0.461775 -0.40405,1.038994 -0.23089,-0.28861 -0.5195,-0.346332 -0.11544,0.404054 -0.23088,0.750385 -0.0577,0.346332 -0.17317,0.692663 h -0.28861 q 0,-0.28861 -0.0577,-0.519497 0,-0.28861 -0.0577,-0.577219 0,0.288609 -0.28861,0.404053 -0.28861,0.115444 -0.11545,0.404053 0.11545,0.230888 0.11545,0.519498 0.0577,0.346331 0.11544,0.63494 -0.98127,0.28861 -1.90482,0.461776 -0.92355,0.173165 -1.90482,-0.115444 -0.69267,-0.230888 -1.44305,-0.230888 -0.75039,0 -1.38533,-0.230887 -1.96254,-0.577219 -3.63648,-1.154438 -1.67393,-0.634941 -3.11698,-1.50077 -1.38533,-0.865828 -2.59749,-2.13571 -1.21215,-1.327604 -2.25115,-3.290148 -1.15444,-2.42432 -1.73166,-4.964084 -0.57722,-2.597486 -0.69266,-5.252693 -0.17316,-2.886095 0.0577,-5.714468 0.23089,-2.828373 0.63494,-5.599025 0.28861,-1.673935 0.63494,-3.34787 0.40406,-1.673935 1.039,-3.232426 0.28861,-0.750385 0.40405,-1.443048 0.17317,-0.750384 0.40406,-1.558491 l 0.34633,-0.750385 q 0.28861,-0.519497 0.69266,-0.634941 0.46177,-0.173165 0.92355,-0.173165 0.57722,0 0.63494,0.346331 0.11544,0.346331 0.17317,0.577219 0.11544,0.115444 0.23088,0.115444 0.11545,-0.05772 0.23089,-0.05772 0.17317,-0.05772 0.23089,0 0.11544,0 0.11544,0.288609 0,0.115444 0.28861,0.230888 0.28861,0.115444 0.34633,0.05772 0.46178,-0.404053 0.75039,-0.173166 0.34633,0.230888 0.63494,0.577219 0.11544,0.173166 0.28861,0.230888 0.17317,0.05772 0.28861,0.173166 1.44305,0.750384 1.09672,2.193432 -0.34634,1.847101 -0.69267,3.63648 -0.28861,1.731657 -0.57722,3.578757 -0.11544,0.634941 -0.23088,1.327604 -0.0577,0.692663 0.0577,1.385326 0.0577,0.288609 -0.0577,0.577219 -0.0577,0.230887 -0.11545,0.461775 -0.28861,2.251154 -0.23089,4.502308 0.0577,2.193432 0.28861,4.386865 0.23089,2.308876 0.75039,4.56003 0.5195,2.193432 1.78938,4.213699 0.46177,0.808106 1.03899,1.500769 0.57722,0.634941 1.15444,1.385326 0.28861,-0.115444 0.5195,-0.173166 0.28861,-0.115444 0.46177,-0.230888 0.98127,-0.92355 1.90482,-1.8471 0.98128,-0.981273 1.67394,-2.135711 1.15444,-1.847101 1.73166,-3.809645 0.63494,-1.962545 1.3276,-3.982811 0.17317,-0.519498 0.40405,-1.038995 0.23089,-0.577219 0.46178,-1.096716 1.38532,-4.27142 2.19343,-8.773729 0.5195,-2.655207 0.69266,-5.310415 0.23089,-2.655207 -0.34633,-5.368136 -0.11544,-0.634941 -0.34633,-1.154438 -0.23089,-0.519498 -0.40405,-1.154438 0.34633,-0.173166 0.75038,-0.173166 0.75039,0 1.039,0.519497 0.34633,0.461775 0.57722,0.404053 0.28861,-0.05772 0.57721,-0.346331 0.28861,0.346331 0.63495,0.634941 0.40405,0.288609 0.69266,0.577219 -0.40405,0.634941 -0.40405,0.808106 0.0577,0.115444 0.69266,0.404054 0.28861,0.115444 0.40405,0.288609 0.11545,0.173166 0.23089,0.692663 -0.11544,-0.173166 -0.46178,-0.288609 0,0.115443 -0.0577,0.173165 -0.0577,0.05772 0,0.115444 0.11545,0.346331 0.23089,0.750385 0.17317,0.346331 0.23089,0.808106 0,0.173166 0.11544,0.230888 0.17317,0 0.28861,0.05772 0.17317,0.05772 0.28861,0.115444 0.11544,0.05772 0,0.288609 0.63494,1.962545 0.63494,3.867368 0,1.904822 -0.11544,3.925089 -0.11545,0.230887 -0.0577,0.346331 0.2886,0.808107 0.11544,1.616213 -0.17317,0.808107 -0.23089,1.616214 -0.0577,0.981272 -0.23089,2.020266 -0.17316,0.981273 -0.40405,1.904823 l -0.28861,1.500769 q -0.11544,0.461776 -0.17316,0.750385 -0.11545,0.404053 -0.17317,0.865829 -0.0577,0.461775 -0.63494,0.577219 -0.11545,0 -0.11545,0.288609 -0.34633,1.038994 -0.75038,2.020267 -0.34633,0.981272 -0.46178,2.077988 -0.0577,0.28861 -0.11544,0.634941 0,0.346331 -0.5195,0.461775 -0.0577,0 0,0.404053 0.0577,0.404054 0.0577,0.692663 z m 0.23089,-26.552074 0.0577,-0.115444 -0.0577,-0.05772 q 0,-0.692663 -0.11545,-1.327604 -0.0577,-0.692662 -0.5195,-1.269881 -0.17316,0 -0.23088,0.05772 0.17316,0.63494 0.40405,1.269881 0.23089,0.634941 0.46178,1.269882 -0.46178,0.577219 -0.46178,0.923551 0.0577,0.346331 0.5195,0.808106 -0.0577,-0.288609 -0.0577,-0.461775 0,-0.173166 -0.0577,-0.346331 l 0.69267,0.346331 q -0.0577,-0.692663 -0.11545,-0.808107 -0.0577,-0.173165 -0.51949,-0.288609 z m 1.38532,-1.50077 h -0.17316 q 0.0577,0.28861 0.0577,0.461776 0.0577,0.173165 0.0577,0.346331 h 0.17316 q 0,-0.115444 -0.0577,-0.230888 v -0.346331 q -0.0577,-0.115444 -0.0577,-0.230888 z m -0.63494,3.751924 h -0.23089 q -0.11544,1.096716 -0.11544,2.193432 0,1.038994 0.34633,2.077989 z m -1.38533,5.310415 q 0.11545,-0.519497 0.23089,-1.038994 0.11545,-0.519497 0.23089,-0.981273 -0.63494,0.461776 -0.5195,0.981273 0.17317,0.519497 0.0577,1.038994 z m 1.09672,2.828373 q 0,-0.577219 0,-0.92355 0.0577,-0.404054 0.0577,-0.692663 -0.17316,0 -0.23089,-0.05772 0.0577,0.346331 -0.11544,0.750385 -0.17316,0.346331 0.28861,0.92355 z m -3.6942,12.294765 q 0.46177,0.115444 0.57722,-0.230888 0.17316,-0.346331 0.28861,-0.634941 0.23089,-0.981272 0.46177,-1.904822 0.23089,-0.923551 0.5195,-1.789379 0.5195,-1.385326 0.75038,-2.828373 0.23089,-1.50077 0.5195,-3.001539 0.0577,-0.115444 -0.17316,-0.634941 -0.23089,0.519497 -0.40406,0.981272 -0.17316,0.461775 -0.28861,0.923551 -0.17316,0.981272 -0.28861,2.020266 -0.11544,1.038994 -0.34633,2.020267 -0.40405,1.269881 -0.8081,2.539763 -0.40406,1.21216 -0.80811,2.539764 z m 0.80811,-6.753462 q 0.57721,-0.692663 0.75038,-1.443048 0.17317,-0.750385 -0.11544,-1.731657 -0.11545,0.865828 -0.28861,1.673935 -0.17317,0.750385 -0.34633,1.50077 z m -1.38533,5.48358 v 0 q 0.40405,-0.750385 0.57722,-1.443047 0.23089,-0.750385 0.11544,-1.731657 -0.46177,0.808106 -0.63494,1.616213 -0.17316,0.750384 -0.0577,1.558491 z m -4.09826,8.48512 q 1.38533,-1.385326 2.19344,-3.001539 0.8081,-1.616214 1.44304,-3.405592 0.11545,-0.461776 0.23089,-0.981273 0.11545,-0.519497 0.23089,-1.038994 -0.5195,-0.05772 -0.63494,0.346331 -0.11544,0.346332 -0.23089,0.634941 -0.46177,1.847101 -1.21216,3.521036 -0.75038,1.616214 -1.73166,3.290149 -0.11544,0.115443 -0.17316,0.288609 0,0.173166 -0.11545,0.346332 z m 1.73166,-0.404054 q 0.11545,-0.05772 0.17317,-0.115444 0.11544,-0.05772 0.23089,-0.115443 1.03899,-1.21216 1.50076,-2.655208 0.5195,-1.500769 1.15444,-2.943817 0.11545,-0.173165 0,-0.404053 -0.0577,-0.28861 -0.11544,-0.519497 -0.46178,1.789379 -1.3276,3.405592 -0.86583,1.616213 -1.61622,3.34787 z"
         style="font-family:'Hiruzen Exist';-inkscape-font-specification:'Hiruzen Exist'"
         id="path2231" />
      <path
         d="m 181.76707,-15.155576 q -0.17316,-0.230887 -0.2886,-0.519497 -0.17317,-0.230887 -0.34634,-0.519497 -1.15443,-1.616213 -1.96254,-3.34787 -0.86583,-1.731657 -1.67394,-3.521036 -0.46177,-1.154438 -0.57722,-2.308876 -0.11544,-1.154438 0.23089,-2.308876 0.0577,-0.115444 0.11545,-0.115444 0.0577,-0.05772 0.0577,-0.173166 -0.63494,-1.038994 -0.34633,-2.020266 0.23088,-0.981273 0.34633,-1.962545 0.0577,-0.808107 0.40405,-1.847101 0.28861,-1.096716 0.75039,-2.193432 0.40405,-1.154438 0.86582,-2.13571 0.46178,-1.038995 0.80811,-1.789379 1.8471,-4.906362 5.5413,-8.889173 3.69421,-3.982811 8.13879,-6.695741 0.40406,-0.288609 0.80811,-0.404053 0.40405,-0.115444 0.75038,-0.230887 0.92355,-0.173166 1.78938,-0.404054 0.92355,-0.230887 1.90482,-0.346331 0.34634,-0.115444 0.69267,0.05772 0.34633,0.115444 0.69266,-0.05772 l 0.11544,0.115444 q 0.11545,0.115443 0.11545,0.173165 0.17316,0.28861 0.28861,0.461776 0.17316,0.173165 0.28861,0.346331 0,-0.173166 0.11544,-0.519497 0.5195,0 0.80811,0.230887 0.34633,0.230888 0.63494,0.692663 0.80811,1.327604 1.50077,2.655208 0.75038,1.269882 1.44305,2.597485 0.17316,0.173166 0.17316,0.461775 0.0577,0.230888 0.0577,0.519498 0,1.096716 -0.40405,2.020266 -0.40405,0.923551 -1.03899,1.847101 -0.46178,0.750385 -1.38533,0.288609 0.11544,-0.750384 0.46178,-1.443047 0.40405,-0.692663 0.2886,-1.558491 -0.2886,0.173165 -0.51949,0.288609 -0.17317,0.115444 -0.46178,0.230888 0.0577,-0.634941 0.0577,-1.096716 0.0577,-0.461776 0.80811,-0.577219 -0.46177,-1.269882 -1.50077,-1.269882 -0.34633,0 -0.98127,0.230887 -0.63494,0.173166 -1.26988,0.461776 -0.63494,0.230887 -1.21216,0.519497 -0.57722,0.288609 -0.86583,0.461775 -1.09672,0.808107 -2.13571,1.673935 -1.039,0.865829 -2.19343,1.789379 -0.34634,0.288609 -0.75039,0.634941 -0.34633,0.288609 -0.69266,0.750385 -0.28861,0.288609 -0.69266,0.577219 -0.40406,0.288609 -0.5195,0.865828 -0.0577,0.346332 -0.34633,0.577219 -0.23089,0.230888 -0.5195,0.346332 -0.40405,0.115443 -0.17317,0.288609 0.23089,0.173166 0.11545,0.230888 -0.17317,0.115443 -0.34633,0.115443 -0.17317,0 -0.28861,0.05772 -0.17317,0.173166 -0.17317,0.230888 0,0.750385 -0.40405,1.385326 -0.40405,0.577219 -0.63494,1.212159 -0.17317,0.692663 -0.63494,1.269882 -0.46178,0.519497 -0.75039,1.154438 -0.75038,1.616214 -1.38532,3.232427 -0.63494,1.558491 -0.98128,3.34787 -0.34633,1.847101 -0.63494,3.694202 -0.28861,1.789379 -0.28861,3.694201 0,1.038995 0.28861,1.385326 0.28861,0.288609 1.32761,0.404053 0.51949,0 1.38532,0.173166 -0.11544,-0.404053 -0.23089,-0.750385 -0.11544,-0.346331 -0.2886,-0.634941 -0.28861,-0.519497 -0.57722,-0.981272 -0.28861,-0.461775 -0.5195,-0.92355 -0.23089,-0.461776 -0.34633,-0.981273 -0.0577,-0.577219 0,-1.038994 0.28861,-3.578758 2.25115,-6.176243 1.96255,-2.655208 4.79092,-4.617752 0.46177,-0.28861 1.03899,-0.519497 0.57722,-0.28861 1.09672,-0.461776 1.26988,-0.461775 2.59749,-0.808106 1.3276,-0.346332 2.71292,-0.115444 1.73166,0.288609 3.34788,0.865828 1.67393,0.577219 2.82837,2.077989 0.28861,0.404053 0.34633,0.519497 0.46177,1.038994 1.09672,1.904823 0.69266,0.808106 1.3276,1.789379 0.75038,0.981272 0.98127,2.13571 0.23089,1.154438 -0.17316,2.482042 -0.0577,0.230887 -0.0577,0.692662 0.11545,0.981273 -0.23088,1.673936 -0.28861,0.692662 -0.75039,1.443047 -0.34633,0.05772 -0.57722,0.346332 -0.17316,0.288609 -0.34633,0.577219 -0.11544,0.288609 -0.34633,0.519497 -0.17317,0.230887 -0.57722,0.288609 -0.0577,0.346332 -0.23089,0.577219 -0.11544,0.173166 -0.57722,0 v 0.692663 q -0.34633,-0.115444 -0.63494,-0.28861 -0.28861,-0.173165 -0.69266,-0.346331 0,0.173166 -0.0577,0.461775 -0.0577,0.230888 0.0577,0.346332 0.40405,0.346331 0.17317,0.577219 -0.23089,0.173165 -0.17317,0.577219 -0.17316,-0.28861 -0.28861,-0.404054 -0.11544,-0.115443 -0.28861,-0.346331 -0.11544,0.461775 -0.28861,0.750385 -0.17316,0.288609 -0.69266,0.288609 -0.17317,0 -0.40405,0.28861 -0.17317,0.230887 -0.34634,0.404053 -0.23088,0.173166 -0.51949,0.28861 -0.23089,0.173165 -0.57722,0.346331 0.17316,0.288609 0.28861,0.577219 0,0.230888 -0.11545,0.230888 -0.17316,0.115443 -0.63494,0.346331 l -1.26988,0.577219 q -0.17316,0.115444 -0.34633,0.173166 -0.11544,0.05772 -0.28861,0.173165 -1.38532,0.750385 -2.82837,1.096716 -0.46178,0.115444 -0.92355,0.346332 -0.46178,0.288609 -0.92355,0.404053 -0.75039,0.230888 -1.90483,0.461775 -1.09671,0.28861 -1.8471,0.346332 -2.71293,0.230887 -5.13725,-1.327604 -0.75038,-0.519497 -1.38532,-1.154438 -0.63494,-0.634941 -1.32761,-1.269882 z m 20.95305,-39.135449 q -0.11544,-0.404053 -0.23088,-0.750384 -0.0577,-0.346332 -0.17317,-0.808107 -0.28861,0.05772 -0.5195,0.05772 -0.23088,0 -0.46177,0.05772 0.46177,0.230887 0.69266,0.634941 0.28861,0.404053 0.69266,0.808106 z m -6.63801,0.28861 q 0.8081,-0.230888 1.61621,-0.461775 0.80811,-0.28861 1.61621,-0.461775 -0.92355,-0.115444 -1.73165,0 -0.80811,0.115443 -1.50077,0.92355 z m 0,1.443047 q 1.15443,-0.230887 2.25115,-0.519497 1.09672,-0.346331 2.07799,-0.981272 -1.26988,-0.05772 -2.3666,0.230888 -1.03899,0.288609 -1.96254,1.269881 z m 3.11698,0.577219 q 0.69266,-0.173165 1.03899,-0.404053 l -0.0577,-0.115444 v -0.05772 q -0.28861,0.05772 -0.63494,0 -0.34633,-0.05772 -0.34633,0.577219 z m -1.38533,0 q 0.40406,0.461776 0.69267,0.230888 0.28861,-0.288609 0.57721,-0.230888 -0.2886,-0.115443 -0.57721,-0.173165 -0.28861,-0.05772 -0.69267,0.173165 z m 6.63802,4.906362 q -0.0577,-0.115444 -0.11544,-0.115444 h -0.0577 q -0.0577,0.230888 -0.17317,0.577219 0.0577,0 0.11544,0.05772 0.0577,-0.115444 0.0577,-0.115444 l 0.11544,-0.288609 q 0,-0.05772 0,-0.05772 0.0577,0 0.0577,-0.05772 z m -10.62083,12.179321 q -0.98127,0.28861 -1.8471,0.808107 -0.86583,0.461775 -1.61621,1.443047 0.98127,-0.519497 1.73165,-0.92355 0.75039,-0.404053 1.5585,-0.865829 0.11544,-0.05772 0.11544,-0.173165 0,-0.173166 0.0577,-0.28861 0.28861,0 0.46178,0.05772 0.23088,0 0.40405,-0.05772 0.63494,-0.115444 1.26988,-0.288609 0.63494,-0.230888 1.32761,-0.461776 -1.15444,-0.173165 -2.13571,0.28861 -0.34634,0.173166 -0.63495,0.288609 -0.2886,0.05772 -0.69266,0.173166 z m 4.96409,0.346332 v -0.115444 q -0.46178,0.115444 -0.92356,0.173165 -0.46177,0 -0.75038,0.461776 0.40405,-0.115444 0.80811,-0.230888 0.46177,-0.173166 0.86583,-0.288609 z m -4.38687,1.096716 q -0.63494,0.115443 -1.21216,0.346331 -0.5195,0.173166 -0.92355,0.692663 h 0.34633 q 0.40406,-0.115444 0.69266,-0.230888 0.34634,-0.173165 0.63495,-0.288609 0.23088,-0.115444 0.46177,-0.519497 0.57722,0.346331 1.09672,-0.346332 -0.28861,0.115444 -0.57722,0.230888 -0.23089,0.05772 -0.5195,0.115444 z m -1.3276,2.13571 q 1.3276,-0.230888 2.53976,-0.750385 1.26988,-0.519497 2.59749,-1.154438 -0.23089,-0.115444 -0.5195,-0.115444 -0.80811,0.28861 -1.61621,0.519498 -0.80811,0.173165 -1.5585,0.461775 -0.40405,0.173165 -0.8081,0.461775 -0.34633,0.288609 -0.63494,0.577219 z m -2.02027,1.385326 q 0.40405,-0.346332 0.86583,-0.634941 0.46177,-0.346332 0.92355,-0.692663 -0.63494,0.173166 -1.09672,0.461775 -0.40405,0.28861 -0.69266,0.865829 z m -3.63648,10.216776 q 0.11544,0 0.28861,0.05772 0.17317,0 0.40405,-0.05772 0.92355,-0.115444 1.78938,-0.230888 0.92355,-0.173165 1.8471,-0.288609 0.23089,0 0.57722,-0.173166 0.34633,-0.230887 0.57722,-0.346331 l 0.80811,-0.577219 q 1.61621,-0.808107 3.1747,-1.616213 1.55849,-0.865829 2.94382,-1.962545 0.80811,-0.634941 1.21216,-0.981272 0.46177,-0.346332 0.75038,-0.634941 0.34634,-0.28861 0.57722,-0.692663 0.28861,-0.404053 0.69267,-1.154438 0.23088,-0.346331 0.40405,-0.750385 0.17317,-0.461775 0.46177,-0.92355 -0.2886,-0.230888 -0.51949,-0.346332 -0.23089,-0.173165 -0.46178,-0.230887 -0.63494,-0.173166 -1.26988,-0.28861 -0.57722,-0.115444 -1.21216,-0.115444 -0.63494,0 -1.3276,0.173166 -0.34633,0.115444 -0.69267,0.173166 -0.34633,0.05772 -0.75038,0.173166 -0.5195,0.230887 -1.21216,0.288609 -0.63494,0.05772 -1.03899,0.808107 0,0.115444 -0.17317,0.115444 -0.11544,0 -0.23089,0 -0.17316,0.05772 -0.28861,0.05772 -0.11544,-0.05772 -0.23089,0 -0.57721,0.346332 -1.09671,0.692663 -0.46178,0.28861 -1.039,0.577219 -1.03899,0.577219 -1.8471,1.50077 -0.75038,0.865828 -1.50077,1.8471 -0.57721,0.692663 -0.86582,1.443048 -0.23089,0.750385 -0.46178,1.558491 -0.11544,0.519497 -0.17317,0.981273 0,0.404053 -0.11544,0.92355 z m 2.30888,-9.293226 q 0.0577,0.05772 0.11544,0.173166 0.17317,-0.173166 0.28861,-0.346332 0.11544,-0.173165 0.28861,-0.288609 l -0.11544,-0.115444 q -0.17317,0.115444 -0.28861,0.28861 -0.11545,0.115443 -0.28861,0.288609 z m 11.48666,5.714468 q -1.84711,0.808107 -3.52104,2.020267 -1.67394,1.154438 -3.34787,2.193432 2.02027,-0.577219 3.6942,-1.673935 1.67394,-1.154438 3.17471,-2.539764 z m 0.57721,1.847101 q 0,-0.288609 0.11545,-0.404053 0.17316,-0.173166 0.34633,-0.28861 0.17317,-0.173165 0.28861,-0.288609 0.17316,-0.173166 0.11544,-0.461775 -0.8081,0.346331 -0.98127,0.577219 -0.17317,0.230887 0.11544,0.865828 z m -0.34633,3.405592 q 0.17317,0.173166 0.11545,0.173166 0.28861,-0.28861 0.69266,-0.461775 -0.11544,-0.173166 -0.17317,-0.230888 -0.11544,0.173166 -0.34633,0.28861 -0.17316,0.115443 -0.28861,0.230887 z m -6.0608,0.981273 q -0.11544,0.230887 -0.40405,0.288609 -0.28861,0 -0.17317,0.461775 0.69267,-0.05772 0.57722,-0.750384 0.28861,0.115443 0.57722,0.173165 0.34633,0 0.63494,-0.404053 -0.34633,0.115444 -0.63494,0.173166 -0.28861,0 -0.57722,0.05772 z"
         style="font-family:'Hiruzen Exist';-inkscape-font-specification:'Hiruzen Exist'"
         id="path2233" />
      <path
         d="m 225.23169,-12.154037 0.28861,1.385326 q -0.80811,-0.404054 -1.50077,-0.519497 -0.69266,-0.115444 -1.50077,0 -0.57722,0.115443 -1.21216,0.115443 -0.57722,0.05772 -1.15444,0.115444 -0.28861,0 -0.46177,-0.05772 -0.11545,-0.05772 -0.28861,-0.173165 -0.28861,-0.173166 -0.80811,-0.346332 -0.46177,-0.173165 -0.92355,-0.05772 -0.63494,0.115444 -1.03899,0.115444 -0.40406,0.05772 -0.86583,-0.173166 -1.61622,-0.750384 -2.8861,-1.789379 -1.26988,-0.981272 -2.02026,-2.655207 -0.17317,-0.346331 -0.40406,-0.577219 -0.17316,-0.288609 -0.34633,-0.577219 -0.69266,-1.154438 -0.75038,-2.42432 0,-1.327604 1.15443,-2.539763 0.46178,0.346331 0.5195,0.519497 0.0577,0.173165 0.17317,0.865828 0.92355,-0.173166 1.3276,0.404053 0.46178,0.519498 0.98127,1.038995 -0.0577,0.288609 -0.11544,0.577219 0,0.230887 -0.0577,0.519497 -0.17317,0.750385 0,1.038994 0.23089,0.230888 0.86583,0.346331 0.63494,0.115444 1.21216,0.173166 0.63494,0.05772 1.26988,0.05772 2.13571,0 4.27142,-0.577219 2.13571,-0.634941 4.15598,-1.616213 2.07798,-0.981273 3.92508,-2.251154 1.84711,-1.269882 3.4056,-2.655208 0.63494,-0.577219 1.15444,-1.269882 0.57721,-0.692662 1.15443,-1.327603 -0.8081,-0.750385 -1.73165,-1.096716 -0.86583,-0.404054 -1.78938,-0.519498 -1.09672,-0.230887 -2.25116,-0.230887 -1.15444,0 -2.30887,-0.230888 -0.92355,-0.173165 -1.8471,-0.173165 -0.92355,0 -1.90483,-0.115444 -0.23088,-0.05772 -0.46177,-0.115444 -0.23089,-0.05772 -0.5195,-0.05772 -0.34633,0 -0.75038,0.230888 -0.11545,0.05772 -0.40406,0 -0.23088,-0.115444 -0.40405,-0.230888 -0.57722,-0.288609 -1.09672,-0.461775 -0.46177,-0.230888 -1.03899,-0.115444 -0.34633,0.05772 -0.63494,0 -0.28861,-0.115444 -0.5195,-0.115444 -0.34633,0.05772 -0.75038,-0.05772 -0.40406,-0.115443 -0.69267,0.404054 0,0.173165 -0.28861,0.05772 -0.86582,-0.05772 -1.73165,0.115443 -0.86583,0.115444 -1.78938,-0.288609 -0.80811,-0.28861 -1.73166,-0.461775 -0.86583,-0.173166 -1.55849,-0.808107 -1.26988,-1.096716 -2.19343,-2.482042 -0.86583,-1.443047 -1.15444,-3.116982 0,-0.115444 -0.11544,-0.230888 -0.11545,-0.173166 -0.23089,-0.28861 -1.78938,-1.962544 -0.63494,-4.27142 0.8081,-1.616213 2.07799,-2.886095 1.26988,-1.269882 2.71293,-2.308876 1.3276,-0.981273 2.6552,-1.847101 1.32761,-0.923551 2.65521,-1.789379 1.15444,-0.750385 2.30888,-1.500769 1.15443,-0.750385 2.42432,-1.385326 1.78937,-0.808107 3.63648,-1.500769 1.90482,-0.750385 3.75192,-1.558492 1.09672,-0.461775 2.19343,-0.750385 1.15444,-0.346331 2.3666,-0.288609 0.5195,0 1.03899,0.05772 0.5195,0 0.86583,0.173166 0.40406,0.173165 0.63494,0.577219 0.23089,0.404053 0.23089,1.096716 0,0.808106 0.40405,1.269882 0.40406,0.461775 0.46178,1.096716 0.11544,0.577219 -0.28861,1.154438 -0.11544,0.230887 -0.17317,0.288609 -0.51949,0.346332 -0.98127,0.634941 -0.46177,0.28861 -0.92355,0.577219 -0.11544,-0.115444 -0.28861,-0.230888 -0.17316,-0.115443 -0.28861,-0.346331 -0.23089,0.230888 -0.8081,0.230888 -0.28861,0 -0.5195,0.05772 -0.17317,0 -0.46178,0.230887 -0.46177,0.461775 -1.61621,0.750385 -0.80811,0.288609 -1.61621,0.750385 -0.80811,0.461775 -1.55849,0.92355 -0.75039,0.461775 -1.44305,0.981272 -0.63494,0.519497 -1.38533,1.038995 -0.8081,0.577219 -1.55849,1.212159 -0.69266,0.577219 -1.50077,1.21216 -0.34633,0.28861 -0.69266,0.519497 -0.28861,0.230888 -0.63494,0.519498 l -2.59749,2.077988 q -0.34633,0.28861 -0.69266,0.519497 -0.28861,0.230888 -0.63494,0.519497 -0.11545,0.05772 -0.17317,0.230888 0,0.115444 -0.17316,0.346331 2.53976,0.346332 5.0218,0.577219 2.48204,0.230888 5.02181,0.346332 0.69266,0.05772 1.38532,0.05772 0.69267,0 1.38533,0.115443 1.50077,0.28861 3.00154,0.692663 1.50077,0.346332 3.00154,0.808107 1.67393,0.519497 3.00154,1.443047 1.38532,0.865829 2.25115,2.482042 0.11544,0.230888 0.17317,0.519497 0.11544,0.230888 0.23088,0.519497 0.11545,0.173166 0.17317,0.461775 0.0577,0.230888 0.17316,0.346332 0.98128,0.981272 1.38533,2.251154 0.46178,1.269882 1.09672,2.42432 0.23088,0.461775 0.17316,0.92355 -0.0577,0.461776 -0.17316,0.923551 -0.34633,1.443047 -0.98128,2.655207 -0.57721,1.21216 -1.61621,2.251154 -1.38532,1.269882 -2.65521,2.193433 -1.21216,0.981272 -2.53976,1.731657 -1.26988,0.808106 -2.71293,1.443047 -1.38533,0.692663 -3.05926,1.443048 -0.23089,0.115443 -0.46178,0.173165 -0.17316,0.05772 -0.46177,0.05772 -0.57722,0 -1.21216,-0.519497 z m 6.92663,-42.136988 q -0.63494,-0.173165 -1.44305,-0.115443 -0.75038,0.05772 -1.50077,0.346331 -0.75038,0.230888 -1.44305,0.634941 -0.63494,0.346331 -1.09671,0.808107 0.8081,-0.28861 1.44304,-0.461776 0.63495,-0.230887 1.26989,-0.404053 0.69266,-0.230888 1.38532,-0.288609 0.69266,-0.115444 1.38533,-0.519498 z m -10.2745,5.252693 q 0.11544,0.05772 0.17316,0.173166 0.11545,0.115444 0.23089,0.115444 0.86583,-0.115444 1.26988,-0.865829 -0.63494,-0.346331 -0.98127,0 -0.28861,0.28861 -0.69266,0.577219 0.11544,-0.230887 0.23089,-0.288609 0.17316,-0.115444 0.17316,-0.230888 -0.11544,-0.404053 -0.28861,-0.750384 -0.17316,-0.346332 -0.28861,-0.808107 0.11545,-0.173166 0.28861,-0.346331 0.23089,-0.230888 0.46178,-0.519498 0.11544,0.28861 0.17316,0.519498 0.11545,0.230887 0.23089,0.461775 0.23089,-0.461775 0.46178,-0.865829 0.28861,-0.461775 0.46177,-0.92355 -0.0577,0.05772 -0.23089,0.05772 l -0.75038,0.115444 q -0.11544,0 -0.17317,0.05772 -0.0577,0 -0.17316,0 0,-0.288609 0.17316,-0.404053 0.17317,-0.115444 0.34634,-0.173166 0.23088,-0.115443 0.2886,-0.230887 0.11545,-0.173166 -0.17316,-0.519497 -0.28861,0.288609 -0.63494,0.634941 -0.34633,0.346331 -0.75039,0.519497 -1.55849,0.634941 -2.82837,1.500769 -1.21216,0.865829 -2.48204,1.731657 -1.21216,0.808107 -2.3666,1.616213 -0.46177,0.28861 -0.92355,0.634941 -0.40405,0.346332 -0.80811,0.692663 -0.11544,0.115444 -0.23088,0.461775 0.51949,-0.230887 0.98127,-0.519497 0.5195,-0.346331 0.98127,-0.634941 1.03899,-0.692662 2.07799,-1.096716 -0.63494,0.634941 -1.38533,1.154438 -0.75038,0.461775 -1.15443,1.096716 -0.46178,0.808107 -1.21216,1.327604 -0.69267,0.519497 -0.98128,1.385326 0.17317,0 0.28861,-0.05772 0.17317,-0.05772 0.34633,-0.173166 0.98128,-0.634941 1.8471,-1.269882 0.86583,-0.692663 1.90483,-1.385325 0.92355,-0.577219 1.8471,-1.096716 0.98127,-0.577219 1.96254,-1.038995 0.28861,-0.173165 0.63494,-0.173165 0.34634,-0.05772 0.69267,-0.173166 0.23088,-0.05772 0.46177,-0.115444 0.23089,-0.05772 0.5195,-0.173166 z m 1.96254,-3.751923 q 0.69267,0.288609 1.039,-0.115444 0.40405,-0.461775 0.75038,-0.808107 -0.40405,0.230888 -0.98127,0.28861 -0.5195,0 -0.80811,0.634941 z m -0.98127,1.789379 q 0.92355,-0.115444 1.67394,-0.519497 0.75038,-0.461776 1.21216,-1.443048 -0.86583,0.634941 -1.55849,1.096716 -0.69267,0.404054 -1.32761,0.865829 z m -4.15598,4.386864 q -0.63494,0 -0.8081,0.05772 -0.11545,0.05772 -0.23089,0.461775 0.28861,-0.173165 0.5195,-0.288609 0.28861,-0.115444 0.51949,-0.230888 z m 9.63956,10.447664 q -0.28861,-0.461775 -0.69266,-0.404053 -0.34633,0 -0.75039,0.115444 0.34634,0.115444 0.69267,0.173166 0.40405,0.05772 0.75038,0.115443 z m 6.52258,16.739352 q 0.28861,-0.05772 0.51949,-0.173166 0.23089,-0.173166 0.23089,-0.923551 -0.28861,0.461776 -0.46177,0.692663 -0.17317,0.230888 -0.28861,0.404054 -0.34633,-0.05772 -0.5195,0.115443 -0.17317,0.173166 -0.28861,0.461776 0.11544,0.115443 0.17317,0.115443 0.11544,-0.115443 0.28861,-0.288609 0.17316,-0.230888 0.34633,-0.404053 z m -3.05926,0.404053 q -0.63494,0.346331 -1.32761,0.750385 -0.63494,0.404053 -1.26988,0.808106 -0.69266,0.346332 -1.38533,0.750385 -0.63494,0.346331 -1.3276,0.634941 -0.69266,0.288609 -1.50077,0.519497 -0.75038,0.230888 -1.61621,0.519497 0.75038,0.173166 1.8471,-0.115444 1.15444,-0.288609 2.3666,-0.865828 1.21216,-0.577219 2.30887,-1.327604 1.15444,-0.808107 1.90483,-1.673935 z m -3.11699,0.461775 q -1.90482,0.808107 -3.63648,1.50077 -1.73165,0.692662 -3.63648,1.500769 0.69267,0.115444 1.73166,-0.115444 1.039,-0.230887 2.07799,-0.692663 1.09672,-0.461775 2.02027,-1.038994 0.92355,-0.577219 1.44304,-1.154438 z"
         style="font-family:'Hiruzen Exist';-inkscape-font-specification:'Hiruzen Exist'"
         id="path2235" />
    </g>
  </g>
</svg>
